<svg width="1430" height="706" viewBox="0 0 1430 706" version="1.1" xmlns="http://www.w3.org/2000/svg" xmlns:xlink="http://www.w3.org/1999/xlink">
<title>Frame</title>
<desc>Created using Figma</desc>
<g id="Canvas" transform="matrix(2 0 0 2 1396 754)">
<clipPath id="clip-0" clip-rule="evenodd">
<path d="M -698 -377L 17 -377L 17 -24L -698 -24L -698 -377Z" fill="#FFFFFF"/>
</clipPath>
<g id="Frame" clip-path="url(#clip-0)">
<path d="M -698 -377L 17 -377L 17 -24L -698 -24L -698 -377Z" fill="#FFFFFF"/>
<g id="Rectangle">
<use xlink:href="#path0_fill" transform="translate(-286 -262)" fill="#F2C94C" fill-opacity="0.39"/>
<use xlink:href="#path1_stroke" transform="translate(-286 -262)"/>
</g>
<g id="id">
<use xlink:href="#path2_fill" transform="translate(-283.136 -257)"/>
</g>
<g id="Rectangle">
<use xlink:href="#path1_stroke" transform="translate(-286 -237)"/>
</g>
<g id="name">
<use xlink:href="#path3_fill" transform="translate(-283.136 -232)"/>
</g>
<g id="Rectangle">
<use xlink:href="#path1_stroke" transform="translate(-286 -212)"/>
</g>
<g id="population">
<use xlink:href="#path4_fill" transform="translate(-283.136 -207)"/>
</g>
<g id="Rectangle">
<use xlink:href="#path1_stroke" transform="translate(-286 -187)"/>
</g>
<g id="capital">
<use xlink:href="#path5_fill" transform="translate(-283.136 -182)"/>
</g>
<g id="Rectangle">
<use xlink:href="#path1_stroke" transform="translate(-286 -162)"/>
</g>
<g id="facts_id">
<use xlink:href="#path6_fill" transform="translate(-283.136 -157)"/>
</g>
<g id="Rectangle">
<use xlink:href="#path0_fill" transform="translate(-521 -324)" fill="#F2C94C" fill-opacity="0.39"/>
<use xlink:href="#path1_stroke" transform="translate(-521 -324)"/>
</g>
<g id="id">
<use xlink:href="#path2_fill" transform="translate(-518.136 -319)"/>
</g>
<g id="facts">
<use xlink:href="#path7_fill" transform="translate(-518 -346)"/>
</g>
<g id="cities">
<use xlink:href="#path8_fill" transform="translate(-284 -282)"/>
</g>
<g id="Rectangle">
<use xlink:href="#path1_stroke" transform="translate(-521 -299)"/>
</g>
<g id="code">
<use xlink:href="#path9_fill" transform="translate(-518.136 -294)"/>
</g>
<g id="Rectangle">
<use xlink:href="#path1_stroke" transform="translate(-521 -274)"/>
</g>
<g id="name">
<use xlink:href="#path3_fill" transform="translate(-518.136 -269)"/>
</g>
<g id="Rectangle">
<use xlink:href="#path1_stroke" transform="translate(-521 -249)"/>
</g>
<g id="area">
<use xlink:href="#path10_fill" transform="translate(-518.136 -244)"/>
</g>
<g id="Rectangle">
<use xlink:href="#path1_stroke" transform="translate(-521 -224)"/>
</g>
<g id="area_land">
<use xlink:href="#path11_fill" transform="translate(-518.136 -219)"/>
</g>
<g id="Rectangle">
<use xlink:href="#path1_stroke" transform="translate(-521 -199)"/>
</g>
<g id="area_water">
<use xlink:href="#path12_fill" transform="translate(-518.136 -194)"/>
</g>
<g id="Rectangle">
<use xlink:href="#path1_stroke" transform="translate(-521 -174)"/>
</g>
<g id="population">
<use xlink:href="#path4_fill" transform="translate(-518.136 -169)"/>
</g>
<g id="Rectangle">
<use xlink:href="#path1_stroke" transform="translate(-521 -149)"/>
</g>
<g id="population_growth">
<use xlink:href="#path13_fill" transform="translate(-518.136 -144)"/>
</g>
<g id="Rectangle">
<use xlink:href="#path1_stroke" transform="translate(-521 -124)"/>
</g>
<g id="birth_rate">
<use xlink:href="#path14_fill" transform="translate(-518.136 -119)"/>
</g>
<g id="Rectangle">
<use xlink:href="#path1_stroke" transform="translate(-521 -99)"/>
</g>
<g id="death_rate">
<use xlink:href="#path15_fill" transform="translate(-518.136 -94)"/>
</g>
<g id="Rectangle">
<use xlink:href="#path1_stroke" transform="translate(-521 -74)"/>
</g>
<g id="migration_rate">
<use xlink:href="#path16_fill" transform="translate(-518.136 -69)"/>
</g>
<g id="Line">
<use xlink:href="#path17_stroke" transform="matrix(0.473127 0.880994 -0.880994 0.473127 -385 -311)"/>
</g>
<g id="Line">
<use xlink:href="#path18_stroke" transform="translate(-395 -310)"/>
</g>
<g id="Line">
<use xlink:href="#path18_stroke" transform="translate(-298 -149)"/>
</g>
</g>
</g>
<defs>
<path id="path0_fill" d="M 0 0L 126 0L 126 25L 0 25L 0 0Z"/>
<path id="path1_stroke" d="M 0 0L 0 -0.5L -0.5 -0.5L -0.5 0L 0 0ZM 126 0L 126.5 0L 126.5 -0.5L 126 -0.5L 126 0ZM 126 25L 126 25.5L 126.5 25.5L 126.5 25L 126 25ZM 0 25L -0.5 25L -0.5 25.5L 0 25.5L 0 25ZM 0 0.5L 126 0.5L 126 -0.5L 0 -0.5L 0 0.5ZM 125.5 0L 125.5 25L 126.5 25L 126.5 0L 125.5 0ZM 126 24.5L 0 24.5L 0 25.5L 126 25.5L 126 24.5ZM 0.5 25L 0.5 0L -0.5 0L -0.5 25L 0.5 25Z"/>
<path id="path2_fill" d="M 57.53 13L 56.2654 13L 56.2654 5.60352L 57.53 5.60352L 57.53 13ZM 56.1628 3.6416C 56.1628 3.43652 56.2243 3.26335 56.3474 3.12207C 56.475 2.98079 56.6618 2.91016 56.9079 2.91016C 57.154 2.91016 57.3409 2.98079 57.4685 3.12207C 57.5961 3.26335 57.6599 3.43652 57.6599 3.6416C 57.6599 3.84668 57.5961 4.01758 57.4685 4.1543C 57.3409 4.29102 57.154 4.35938 56.9079 4.35938C 56.6618 4.35938 56.475 4.29102 56.3474 4.1543C 56.2243 4.01758 56.1628 3.84668 56.1628 3.6416ZM 59.2527 9.24023C 59.2527 8.10547 59.5215 7.19401 60.0593 6.50586C 60.5971 5.81315 61.3012 5.4668 62.1716 5.4668C 63.0375 5.4668 63.7234 5.76302 64.2292 6.35547L 64.2292 2.5L 65.4939 2.5L 65.4939 13L 64.3318 13L 64.2702 12.207C 63.7644 12.8268 63.0603 13.1367 62.1579 13.1367C 61.3012 13.1367 60.6016 12.7858 60.0593 12.084C 59.5215 11.3822 59.2527 10.4661 59.2527 9.33594L 59.2527 9.24023ZM 60.5173 9.38379C 60.5173 10.2223 60.6905 10.8786 61.0368 11.3525C 61.3832 11.8265 61.8617 12.0635 62.4724 12.0635C 63.2745 12.0635 63.8601 11.7035 64.2292 10.9834L 64.2292 7.58594C 63.851 6.88867 63.2699 6.54004 62.4861 6.54004C 61.8663 6.54004 61.3832 6.7793 61.0368 7.25781C 60.6905 7.73633 60.5173 8.44499 60.5173 9.38379Z"/>
<path id="path3_fill" d="M 45.4851 5.60352L 45.5261 6.5332C 46.0912 5.82227 46.8295 5.4668 47.7409 5.4668C 49.3041 5.4668 50.0925 6.34863 50.1062 8.1123L 50.1062 13L 48.8415 13L 48.8415 8.10547C 48.837 7.57227 48.7139 7.17806 48.4724 6.92285C 48.2354 6.66764 47.864 6.54004 47.3581 6.54004C 46.948 6.54004 46.5879 6.64941 46.2781 6.86816C 45.9682 7.08691 45.7266 7.37402 45.5534 7.72949L 45.5534 13L 44.2888 13L 44.2888 5.60352L 45.4851 5.60352ZM 56.5798 13C 56.5069 12.8542 56.4476 12.5944 56.4021 12.2207C 55.8142 12.8314 55.1124 13.1367 54.2966 13.1367C 53.5674 13.1367 52.9682 12.9316 52.4988 12.5215C 52.0339 12.1068 51.8015 11.5827 51.8015 10.9492C 51.8015 10.179 52.0932 9.58203 52.6765 9.1582C 53.2644 8.72982 54.0893 8.51562 55.1511 8.51562L 56.3816 8.51562L 56.3816 7.93457C 56.3816 7.49251 56.2494 7.1416 55.9851 6.88184C 55.7208 6.61751 55.3311 6.48535 54.8161 6.48535C 54.365 6.48535 53.9867 6.59928 53.6814 6.82715C 53.376 7.05501 53.2234 7.33073 53.2234 7.6543L 51.9519 7.6543C 51.9519 7.28516 52.0818 6.92969 52.3415 6.58789C 52.6059 6.24154 52.9613 5.9681 53.4079 5.76758C 53.8591 5.56706 54.3536 5.4668 54.8913 5.4668C 55.7435 5.4668 56.4112 5.68099 56.8943 6.10938C 57.3773 6.5332 57.628 7.11882 57.6462 7.86621L 57.6462 11.2705C 57.6462 11.9495 57.7328 12.4896 57.906 12.8906L 57.906 13L 56.5798 13ZM 54.4812 12.0361C 54.8777 12.0361 55.2536 11.9336 55.6091 11.7285C 55.9646 11.5234 56.2221 11.2568 56.3816 10.9287L 56.3816 9.41113L 55.3904 9.41113C 53.8409 9.41113 53.0661 9.86458 53.0661 10.7715C 53.0661 11.168 53.1983 11.4779 53.4626 11.7012C 53.7269 11.9245 54.0665 12.0361 54.4812 12.0361ZM 60.8181 5.60352L 60.8523 6.42383C 61.3946 5.78581 62.126 5.4668 63.0466 5.4668C 64.0811 5.4668 64.7852 5.86328 65.1589 6.65625C 65.405 6.30078 65.724 6.01367 66.1159 5.79492C 66.5124 5.57617 66.9796 5.4668 67.5173 5.4668C 69.1397 5.4668 69.9646 6.32585 69.9919 8.04395L 69.9919 13L 68.7273 13L 68.7273 8.11914C 68.7273 7.59049 68.6065 7.19629 68.365 6.93652C 68.1234 6.6722 67.7178 6.54004 67.1482 6.54004C 66.6788 6.54004 66.2891 6.68132 65.9792 6.96387C 65.6693 7.24186 65.4893 7.61784 65.4392 8.0918L 65.4392 13L 64.1677 13L 64.1677 8.15332C 64.1677 7.0778 63.6413 6.54004 62.5886 6.54004C 61.7592 6.54004 61.1918 6.89323 60.8865 7.59961L 60.8865 13L 59.6218 13L 59.6218 5.60352L 60.8181 5.60352ZM 74.9753 13.1367C 73.9727 13.1367 73.157 12.8086 72.5281 12.1523C 71.8991 11.4915 71.5847 10.6097 71.5847 9.50684L 71.5847 9.27441C 71.5847 8.54069 71.7237 7.88672 72.0017 7.3125C 72.2842 6.73372 72.6762 6.28255 73.1775 5.95898C 73.6833 5.63086 74.2302 5.4668 74.8181 5.4668C 75.7797 5.4668 76.5271 5.78353 77.0603 6.41699C 77.5935 7.05046 77.8601 7.95736 77.8601 9.1377L 77.8601 9.66406L 72.8493 9.66406C 72.8676 10.3932 73.0795 10.9834 73.4851 11.4346C 73.8952 11.8812 74.4148 12.1045 75.0437 12.1045C 75.4903 12.1045 75.8685 12.0133 76.1784 11.8311C 76.4883 11.6488 76.7595 11.4072 76.9919 11.1064L 77.7644 11.708C 77.1446 12.6605 76.2149 13.1367 74.9753 13.1367ZM 74.8181 6.50586C 74.3077 6.50586 73.8793 6.69271 73.5329 7.06641C 73.1866 7.43555 72.9724 7.95508 72.8904 8.625L 76.5954 8.625L 76.5954 8.5293C 76.559 7.88672 76.3858 7.38997 76.0759 7.03906C 75.766 6.68359 75.3467 6.50586 74.8181 6.50586Z"/>
<path id="path4_fill" d="M 34.9851 9.38379C 34.9851 10.5094 34.7276 11.4163 34.2126 12.1045C 33.6976 12.7926 33.0004 13.1367 32.1208 13.1367C 31.223 13.1367 30.5167 12.8519 30.0017 12.2822L 30.0017 15.8438L 28.737 15.8438L 28.737 5.60352L 29.8923 5.60352L 29.9538 6.42383C 30.4688 5.78581 31.1843 5.4668 32.1003 5.4668C 32.989 5.4668 33.6908 5.80176 34.2058 6.47168C 34.7253 7.1416 34.9851 8.07357 34.9851 9.26758L 34.9851 9.38379ZM 33.7204 9.24023C 33.7204 8.40625 33.5427 7.74772 33.1872 7.26465C 32.8318 6.78158 32.3441 6.54004 31.7243 6.54004C 30.9587 6.54004 30.3845 6.87956 30.0017 7.55859L 30.0017 11.0928C 30.3799 11.7673 30.9587 12.1045 31.738 12.1045C 32.3441 12.1045 32.8249 11.8652 33.1804 11.3867C 33.5404 10.9036 33.7204 10.1882 33.7204 9.24023ZM 36.2634 9.2334C 36.2634 8.50879 36.4047 7.8571 36.6872 7.27832C 36.9743 6.69954 37.3708 6.25293 37.8767 5.93848C 38.3871 5.62402 38.9682 5.4668 39.6199 5.4668C 40.627 5.4668 41.4405 5.81543 42.0603 6.5127C 42.6846 7.20996 42.9968 8.13737 42.9968 9.29492L 42.9968 9.38379C 42.9968 10.1038 42.8578 10.751 42.5798 11.3252C 42.3064 11.8949 41.9122 12.3392 41.3972 12.6582C 40.8868 12.9772 40.2989 13.1367 39.6335 13.1367C 38.6309 13.1367 37.8174 12.7881 37.1931 12.0908C 36.5733 11.3936 36.2634 10.4707 36.2634 9.32227L 36.2634 9.2334ZM 37.5349 9.38379C 37.5349 10.2041 37.724 10.8626 38.1023 11.3594C 38.4851 11.8561 38.9955 12.1045 39.6335 12.1045C 40.2761 12.1045 40.7865 11.8538 41.1648 11.3525C 41.543 10.8467 41.7322 10.1403 41.7322 9.2334C 41.7322 8.4222 41.5385 7.76595 41.1511 7.26465C 40.7683 6.75879 40.2579 6.50586 39.6199 6.50586C 38.9955 6.50586 38.4919 6.75423 38.1091 7.25098C 37.7263 7.74772 37.5349 8.45866 37.5349 9.38379ZM 50.8308 9.38379C 50.8308 10.5094 50.5733 11.4163 50.0583 12.1045C 49.5434 12.7926 48.8461 13.1367 47.9665 13.1367C 47.0687 13.1367 46.3624 12.8519 45.8474 12.2822L 45.8474 15.8438L 44.5827 15.8438L 44.5827 5.60352L 45.738 5.60352L 45.7995 6.42383C 46.3145 5.78581 47.03 5.4668 47.946 5.4668C 48.8347 5.4668 49.5365 5.80176 50.0515 6.47168C 50.571 7.1416 50.8308 8.07357 50.8308 9.26758L 50.8308 9.38379ZM 49.5661 9.24023C 49.5661 8.40625 49.3884 7.74772 49.0329 7.26465C 48.6775 6.78158 48.1898 6.54004 47.57 6.54004C 46.8044 6.54004 46.2302 6.87956 45.8474 7.55859L 45.8474 11.0928C 46.2256 11.7673 46.8044 12.1045 47.5837 12.1045C 48.1898 12.1045 48.6706 11.8652 49.0261 11.3867C 49.3861 10.9036 49.5661 10.1882 49.5661 9.24023ZM 57.0105 12.2686C 56.5183 12.8473 55.796 13.1367 54.8435 13.1367C 54.0551 13.1367 53.4535 12.9089 53.0388 12.4531C 52.6286 11.9928 52.4213 11.3138 52.4167 10.416L 52.4167 5.60352L 53.6814 5.60352L 53.6814 10.3818C 53.6814 11.5029 54.1371 12.0635 55.0486 12.0635C 56.0147 12.0635 56.6573 11.7035 56.9763 10.9834L 56.9763 5.60352L 58.2409 5.60352L 58.2409 13L 57.0378 13L 57.0105 12.2686ZM 61.5427 13L 60.2781 13L 60.2781 2.5L 61.5427 2.5L 61.5427 13ZM 68.1394 13C 68.0665 12.8542 68.0072 12.5944 67.9616 12.2207C 67.3738 12.8314 66.6719 13.1367 65.8562 13.1367C 65.127 13.1367 64.5277 12.9316 64.0583 12.5215C 63.5935 12.1068 63.3611 11.5827 63.3611 10.9492C 63.3611 10.179 63.6527 9.58203 64.2361 9.1582C 64.824 8.72982 65.6488 8.51562 66.7107 8.51562L 67.9411 8.51562L 67.9411 7.93457C 67.9411 7.49251 67.809 7.1416 67.5447 6.88184C 67.2803 6.61751 66.8907 6.48535 66.3757 6.48535C 65.9245 6.48535 65.5463 6.59928 65.2409 6.82715C 64.9356 7.05501 64.7829 7.33073 64.7829 7.6543L 63.5115 7.6543C 63.5115 7.28516 63.6413 6.92969 63.9011 6.58789C 64.1654 6.24154 64.5209 5.9681 64.9675 5.76758C 65.4187 5.56706 65.9131 5.4668 66.4509 5.4668C 67.3031 5.4668 67.9708 5.68099 68.4538 6.10938C 68.9369 6.5332 69.1876 7.11882 69.2058 7.86621L 69.2058 11.2705C 69.2058 11.9495 69.2924 12.4896 69.4656 12.8906L 69.4656 13L 68.1394 13ZM 66.0407 12.0361C 66.4372 12.0361 66.8132 11.9336 67.1687 11.7285C 67.5241 11.5234 67.7816 11.2568 67.9411 10.9287L 67.9411 9.41113L 66.9499 9.41113C 65.4004 9.41113 64.6257 9.86458 64.6257 10.7715C 64.6257 11.168 64.7579 11.4779 65.0222 11.7012C 65.2865 11.9245 65.626 12.0361 66.0407 12.0361ZM 72.904 3.8125L 72.904 5.60352L 74.2849 5.60352L 74.2849 6.58105L 72.904 6.58105L 72.904 11.168C 72.904 11.4642 72.9656 11.6875 73.0886 11.8379C 73.2116 11.9837 73.4213 12.0566 73.7175 12.0566C 73.8633 12.0566 74.0639 12.0293 74.3191 11.9746L 74.3191 13C 73.9864 13.0911 73.6628 13.1367 73.3484 13.1367C 72.7833 13.1367 72.3572 12.9658 72.07 12.624C 71.7829 12.2822 71.6394 11.7969 71.6394 11.168L 71.6394 6.58105L 70.2927 6.58105L 70.2927 5.60352L 71.6394 5.60352L 71.6394 3.8125L 72.904 3.8125ZM 77.1423 13L 75.8777 13L 75.8777 5.60352L 77.1423 5.60352L 77.1423 13ZM 75.7751 3.6416C 75.7751 3.43652 75.8366 3.26335 75.9597 3.12207C 76.0873 2.98079 76.2741 2.91016 76.5202 2.91016C 76.7663 2.91016 76.9532 2.98079 77.0808 3.12207C 77.2084 3.26335 77.2722 3.43652 77.2722 3.6416C 77.2722 3.84668 77.2084 4.01758 77.0808 4.1543C 76.9532 4.29102 76.7663 4.35938 76.5202 4.35938C 76.2741 4.35938 76.0873 4.29102 75.9597 4.1543C 75.8366 4.01758 75.7751 3.84668 75.7751 3.6416ZM 78.8376 9.2334C 78.8376 8.50879 78.9789 7.8571 79.2615 7.27832C 79.5486 6.69954 79.945 6.25293 80.4509 5.93848C 80.9613 5.62402 81.5424 5.4668 82.1941 5.4668C 83.2012 5.4668 84.0147 5.81543 84.6345 6.5127C 85.2588 7.20996 85.571 8.13737 85.571 9.29492L 85.571 9.38379C 85.571 10.1038 85.432 10.751 85.154 11.3252C 84.8806 11.8949 84.4864 12.3392 83.9714 12.6582C 83.461 12.9772 82.8731 13.1367 82.2077 13.1367C 81.2051 13.1367 80.3917 12.7881 79.7673 12.0908C 79.1475 11.3936 78.8376 10.4707 78.8376 9.32227L 78.8376 9.2334ZM 80.1091 9.38379C 80.1091 10.2041 80.2982 10.8626 80.6765 11.3594C 81.0593 11.8561 81.5697 12.1045 82.2077 12.1045C 82.8503 12.1045 83.3607 11.8538 83.739 11.3525C 84.1172 10.8467 84.3064 10.1403 84.3064 9.2334C 84.3064 8.4222 84.1127 7.76595 83.7253 7.26465C 83.3425 6.75879 82.8321 6.50586 82.1941 6.50586C 81.5697 6.50586 81.0661 6.75423 80.6833 7.25098C 80.3005 7.74772 80.1091 8.45866 80.1091 9.38379ZM 88.3532 5.60352L 88.3943 6.5332C 88.9594 5.82227 89.6976 5.4668 90.6091 5.4668C 92.1723 5.4668 92.9607 6.34863 92.9743 8.1123L 92.9743 13L 91.7097 13L 91.7097 8.10547C 91.7051 7.57227 91.5821 7.17806 91.3406 6.92285C 91.1036 6.66764 90.7322 6.54004 90.2263 6.54004C 89.8161 6.54004 89.4561 6.64941 89.1462 6.86816C 88.8363 7.08691 88.5948 7.37402 88.4216 7.72949L 88.4216 13L 87.157 13L 87.157 5.60352L 88.3532 5.60352Z"/>
<path id="path5_fill" d="M 43.8718 12.1045C 44.323 12.1045 44.7172 11.9678 45.0544 11.6943C 45.3917 11.4209 45.5785 11.0791 45.615 10.6689L 46.8113 10.6689C 46.7885 11.0928 46.6426 11.4961 46.3738 11.8789C 46.1049 12.2617 45.7449 12.5671 45.2937 12.7949C 44.8471 13.0228 44.3731 13.1367 43.8718 13.1367C 42.8646 13.1367 42.0626 12.8018 41.4656 12.1318C 40.8731 11.4574 40.5769 10.5368 40.5769 9.37012L 40.5769 9.1582C 40.5769 8.43815 40.709 7.79785 40.9734 7.2373C 41.2377 6.67676 41.6159 6.24154 42.1081 5.93164C 42.6049 5.62174 43.1905 5.4668 43.865 5.4668C 44.6944 5.4668 45.3825 5.71517 45.9294 6.21191C 46.4809 6.70866 46.7748 7.35352 46.8113 8.14648L 45.615 8.14648C 45.5785 7.66797 45.3962 7.27604 45.0681 6.9707C 44.7445 6.66081 44.3435 6.50586 43.865 6.50586C 43.2224 6.50586 42.7234 6.73828 42.3679 7.20312C 42.017 7.66341 41.8415 8.33105 41.8415 9.20605L 41.8415 9.44531C 41.8415 10.2975 42.017 10.9538 42.3679 11.4141C 42.7188 11.8743 43.2201 12.1045 43.8718 12.1045ZM 52.7995 13C 52.7266 12.8542 52.6674 12.5944 52.6218 12.2207C 52.0339 12.8314 51.3321 13.1367 50.5163 13.1367C 49.7872 13.1367 49.1879 12.9316 48.7185 12.5215C 48.2536 12.1068 48.0212 11.5827 48.0212 10.9492C 48.0212 10.179 48.3129 9.58203 48.8962 9.1582C 49.4841 8.72982 50.309 8.51562 51.3708 8.51562L 52.6013 8.51562L 52.6013 7.93457C 52.6013 7.49251 52.4691 7.1416 52.2048 6.88184C 51.9405 6.61751 51.5508 6.48535 51.0359 6.48535C 50.5847 6.48535 50.2064 6.59928 49.9011 6.82715C 49.5958 7.05501 49.4431 7.33073 49.4431 7.6543L 48.1716 7.6543C 48.1716 7.28516 48.3015 6.92969 48.5613 6.58789C 48.8256 6.24154 49.181 5.9681 49.6277 5.76758C 50.0788 5.56706 50.5733 5.4668 51.1111 5.4668C 51.9633 5.4668 52.6309 5.68099 53.114 6.10938C 53.5971 6.5332 53.8477 7.11882 53.8659 7.86621L 53.8659 11.2705C 53.8659 11.9495 53.9525 12.4896 54.1257 12.8906L 54.1257 13L 52.7995 13ZM 50.7009 12.0361C 51.0974 12.0361 51.4734 11.9336 51.8288 11.7285C 52.1843 11.5234 52.4418 11.2568 52.6013 10.9287L 52.6013 9.41113L 51.6101 9.41113C 50.0606 9.41113 49.2859 9.86458 49.2859 10.7715C 49.2859 11.168 49.418 11.4779 49.6824 11.7012C 49.9467 11.9245 50.2862 12.0361 50.7009 12.0361ZM 62.0964 9.38379C 62.0964 10.5094 61.8389 11.4163 61.324 12.1045C 60.809 12.7926 60.1117 13.1367 59.2322 13.1367C 58.3344 13.1367 57.628 12.8519 57.113 12.2822L 57.113 15.8438L 55.8484 15.8438L 55.8484 5.60352L 57.0036 5.60352L 57.0652 6.42383C 57.5801 5.78581 58.2956 5.4668 59.2116 5.4668C 60.1003 5.4668 60.8021 5.80176 61.3171 6.47168C 61.8366 7.1416 62.0964 8.07357 62.0964 9.26758L 62.0964 9.38379ZM 60.8318 9.24023C 60.8318 8.40625 60.654 7.74772 60.2986 7.26465C 59.9431 6.78158 59.4555 6.54004 58.8357 6.54004C 58.07 6.54004 57.4958 6.87956 57.113 7.55859L 57.113 11.0928C 57.4913 11.7673 58.07 12.1045 58.8493 12.1045C 59.4555 12.1045 59.9363 11.8652 60.2917 11.3867C 60.6518 10.9036 60.8318 10.1882 60.8318 9.24023ZM 65.0837 13L 63.8191 13L 63.8191 5.60352L 65.0837 5.60352L 65.0837 13ZM 63.7165 3.6416C 63.7165 3.43652 63.7781 3.26335 63.9011 3.12207C 64.0287 2.98079 64.2156 2.91016 64.4616 2.91016C 64.7077 2.91016 64.8946 2.98079 65.0222 3.12207C 65.1498 3.26335 65.2136 3.43652 65.2136 3.6416C 65.2136 3.84668 65.1498 4.01758 65.0222 4.1543C 64.8946 4.29102 64.7077 4.35938 64.4616 4.35938C 64.2156 4.35938 64.0287 4.29102 63.9011 4.1543C 63.7781 4.01758 63.7165 3.84668 63.7165 3.6416ZM 68.8298 3.8125L 68.8298 5.60352L 70.2107 5.60352L 70.2107 6.58105L 68.8298 6.58105L 68.8298 11.168C 68.8298 11.4642 68.8913 11.6875 69.0144 11.8379C 69.1374 11.9837 69.3471 12.0566 69.6433 12.0566C 69.7891 12.0566 69.9896 12.0293 70.2449 11.9746L 70.2449 13C 69.9122 13.0911 69.5886 13.1367 69.2741 13.1367C 68.709 13.1367 68.2829 12.9658 67.9958 12.624C 67.7087 12.2822 67.5652 11.7969 67.5652 11.168L 67.5652 6.58105L 66.2185 6.58105L 66.2185 5.60352L 67.5652 5.60352L 67.5652 3.8125L 68.8298 3.8125ZM 76.2605 13C 76.1876 12.8542 76.1283 12.5944 76.0827 12.2207C 75.4949 12.8314 74.793 13.1367 73.9773 13.1367C 73.2481 13.1367 72.6488 12.9316 72.1794 12.5215C 71.7146 12.1068 71.4822 11.5827 71.4822 10.9492C 71.4822 10.179 71.7738 9.58203 72.3572 9.1582C 72.945 8.72982 73.7699 8.51562 74.8318 8.51562L 76.0622 8.51562L 76.0622 7.93457C 76.0622 7.49251 75.9301 7.1416 75.6657 6.88184C 75.4014 6.61751 75.0118 6.48535 74.4968 6.48535C 74.0456 6.48535 73.6674 6.59928 73.362 6.82715C 73.0567 7.05501 72.904 7.33073 72.904 7.6543L 71.6325 7.6543C 71.6325 7.28516 71.7624 6.92969 72.0222 6.58789C 72.2865 6.24154 72.642 5.9681 73.0886 5.76758C 73.5398 5.56706 74.0342 5.4668 74.572 5.4668C 75.4242 5.4668 76.0919 5.68099 76.5749 6.10938C 77.058 6.5332 77.3087 7.11882 77.3269 7.86621L 77.3269 11.2705C 77.3269 11.9495 77.4135 12.4896 77.5866 12.8906L 77.5866 13L 76.2605 13ZM 74.1618 12.0361C 74.5583 12.0361 74.9343 11.9336 75.2898 11.7285C 75.6452 11.5234 75.9027 11.2568 76.0622 10.9287L 76.0622 9.41113L 75.071 9.41113C 73.5215 9.41113 72.7468 9.86458 72.7468 10.7715C 72.7468 11.168 72.879 11.4779 73.1433 11.7012C 73.4076 11.9245 73.7471 12.0361 74.1618 12.0361ZM 80.6833 13L 79.4187 13L 79.4187 2.5L 80.6833 2.5L 80.6833 13Z"/>
<path id="path6_fill" d="M 37.8152 13L 37.8152 6.58105L 36.6462 6.58105L 36.6462 5.60352L 37.8152 5.60352L 37.8152 4.84473C 37.8152 4.05176 38.0271 3.4388 38.4509 3.00586C 38.8747 2.57292 39.474 2.35645 40.2488 2.35645C 40.5404 2.35645 40.8298 2.39518 41.1169 2.47266L 41.0486 3.49805C 40.8344 3.45703 40.6065 3.43652 40.365 3.43652C 39.9548 3.43652 39.6381 3.55729 39.4148 3.79883C 39.1915 4.03581 39.0798 4.3776 39.0798 4.82422L 39.0798 5.60352L 40.6589 5.60352L 40.6589 6.58105L 39.0798 6.58105L 39.0798 13L 37.8152 13ZM 46.6267 13C 46.5538 12.8542 46.4945 12.5944 46.449 12.2207C 45.8611 12.8314 45.1592 13.1367 44.3435 13.1367C 43.6143 13.1367 43.015 12.9316 42.5456 12.5215C 42.0808 12.1068 41.8484 11.5827 41.8484 10.9492C 41.8484 10.179 42.14 9.58203 42.7234 9.1582C 43.3113 8.72982 44.1361 8.51562 45.198 8.51562L 46.4284 8.51562L 46.4284 7.93457C 46.4284 7.49251 46.2963 7.1416 46.032 6.88184C 45.7676 6.61751 45.378 6.48535 44.863 6.48535C 44.4118 6.48535 44.0336 6.59928 43.7282 6.82715C 43.4229 7.05501 43.2702 7.33073 43.2702 7.6543L 41.9988 7.6543C 41.9988 7.28516 42.1286 6.92969 42.3884 6.58789C 42.6527 6.24154 43.0082 5.9681 43.4548 5.76758C 43.906 5.56706 44.4004 5.4668 44.9382 5.4668C 45.7904 5.4668 46.4581 5.68099 46.9411 6.10938C 47.4242 6.5332 47.6749 7.11882 47.6931 7.86621L 47.6931 11.2705C 47.6931 11.9495 47.7797 12.4896 47.9529 12.8906L 47.9529 13L 46.6267 13ZM 44.5281 12.0361C 44.9245 12.0361 45.3005 11.9336 45.656 11.7285C 46.0115 11.5234 46.2689 11.2568 46.4284 10.9287L 46.4284 9.41113L 45.4372 9.41113C 43.8878 9.41113 43.113 9.86458 43.113 10.7715C 43.113 11.168 43.2452 11.4779 43.5095 11.7012C 43.7738 11.9245 44.1133 12.0361 44.5281 12.0361ZM 52.6423 12.1045C 53.0935 12.1045 53.4877 11.9678 53.8249 11.6943C 54.1622 11.4209 54.349 11.0791 54.3855 10.6689L 55.5818 10.6689C 55.559 11.0928 55.4131 11.4961 55.1443 11.8789C 54.8754 12.2617 54.5154 12.5671 54.0642 12.7949C 53.6176 13.0228 53.1436 13.1367 52.6423 13.1367C 51.6351 13.1367 50.8331 12.8018 50.2361 12.1318C 49.6436 11.4574 49.3474 10.5368 49.3474 9.37012L 49.3474 9.1582C 49.3474 8.43815 49.4796 7.79785 49.7439 7.2373C 50.0082 6.67676 50.3865 6.24154 50.8786 5.93164C 51.3754 5.62174 51.961 5.4668 52.6355 5.4668C 53.4649 5.4668 54.1531 5.71517 54.6999 6.21191C 55.2514 6.70866 55.5453 7.35352 55.5818 8.14648L 54.3855 8.14648C 54.349 7.66797 54.1667 7.27604 53.8386 6.9707C 53.515 6.66081 53.114 6.50586 52.6355 6.50586C 51.9929 6.50586 51.4939 6.73828 51.1384 7.20312C 50.7875 7.66341 50.612 8.33105 50.612 9.20605L 50.612 9.44531C 50.612 10.2975 50.7875 10.9538 51.1384 11.4141C 51.4893 11.8743 51.9906 12.1045 52.6423 12.1045ZM 58.7195 3.8125L 58.7195 5.60352L 60.1003 5.60352L 60.1003 6.58105L 58.7195 6.58105L 58.7195 11.168C 58.7195 11.4642 58.781 11.6875 58.904 11.8379C 59.0271 11.9837 59.2367 12.0566 59.5329 12.0566C 59.6788 12.0566 59.8793 12.0293 60.1345 11.9746L 60.1345 13C 59.8018 13.0911 59.4782 13.1367 59.1638 13.1367C 58.5987 13.1367 58.1726 12.9658 57.8855 12.624C 57.5984 12.2822 57.4548 11.7969 57.4548 11.168L 57.4548 6.58105L 56.1081 6.58105L 56.1081 5.60352L 57.4548 5.60352L 57.4548 3.8125L 58.7195 3.8125ZM 65.8904 11.0381C 65.8904 10.6963 65.7605 10.432 65.5007 10.2451C 65.2455 10.0537 64.7966 9.88965 64.154 9.75293C 63.516 9.61621 63.0079 9.45215 62.6296 9.26074C 62.2559 9.06934 61.9779 8.84147 61.7956 8.57715C 61.6179 8.31283 61.529 7.99837 61.529 7.63379C 61.529 7.02767 61.7842 6.51497 62.2947 6.0957C 62.8096 5.67643 63.4659 5.4668 64.2634 5.4668C 65.1019 5.4668 65.781 5.68327 66.3005 6.11621C 66.8246 6.54915 67.0866 7.10286 67.0866 7.77734L 65.8152 7.77734C 65.8152 7.43099 65.6671 7.13249 65.3708 6.88184C 65.0792 6.63118 64.71 6.50586 64.2634 6.50586C 63.8031 6.50586 63.4431 6.60612 63.1833 6.80664C 62.9236 7.00716 62.7937 7.26921 62.7937 7.59277C 62.7937 7.89811 62.9144 8.12826 63.156 8.2832C 63.3975 8.43815 63.8327 8.58626 64.4616 8.72754C 65.0951 8.86882 65.6078 9.03743 65.9997 9.2334C 66.3917 9.42936 66.681 9.66634 66.8679 9.94434C 67.0593 10.2178 67.155 10.5527 67.155 10.9492C 67.155 11.61 66.8907 12.141 66.362 12.542C 65.8334 12.9385 65.1475 13.1367 64.3044 13.1367C 63.712 13.1367 63.1879 13.0319 62.7322 12.8223C 62.2764 12.6126 61.9187 12.321 61.6589 11.9473C 61.4037 11.569 61.2761 11.1611 61.2761 10.7236L 62.5407 10.7236C 62.5635 11.1475 62.7322 11.4847 63.0466 11.7354C 63.3656 11.9814 63.7849 12.1045 64.3044 12.1045C 64.7829 12.1045 65.1657 12.0088 65.4529 11.8174C 65.7445 11.6214 65.8904 11.3617 65.8904 11.0381ZM 74.1345 14.0322L 67.8728 14.0322L 67.8728 13L 74.1345 13L 74.1345 14.0322ZM 76.4929 13L 75.2282 13L 75.2282 5.60352L 76.4929 5.60352L 76.4929 13ZM 75.1257 3.6416C 75.1257 3.43652 75.1872 3.26335 75.3103 3.12207C 75.4379 2.98079 75.6247 2.91016 75.8708 2.91016C 76.1169 2.91016 76.3038 2.98079 76.4314 3.12207C 76.559 3.26335 76.6228 3.43652 76.6228 3.6416C 76.6228 3.84668 76.559 4.01758 76.4314 4.1543C 76.3038 4.29102 76.1169 4.35938 75.8708 4.35938C 75.6247 4.35938 75.4379 4.29102 75.3103 4.1543C 75.1872 4.01758 75.1257 3.84668 75.1257 3.6416ZM 78.2156 9.24023C 78.2156 8.10547 78.4844 7.19401 79.0222 6.50586C 79.56 5.81315 80.2641 5.4668 81.1345 5.4668C 82.0004 5.4668 82.6863 5.76302 83.1921 6.35547L 83.1921 2.5L 84.4568 2.5L 84.4568 13L 83.2947 13L 83.2331 12.207C 82.7273 12.8268 82.0232 13.1367 81.1208 13.1367C 80.2641 13.1367 79.5645 12.7858 79.0222 12.084C 78.4844 11.3822 78.2156 10.4661 78.2156 9.33594L 78.2156 9.24023ZM 79.4802 9.38379C 79.4802 10.2223 79.6534 10.8786 79.9997 11.3525C 80.3461 11.8265 80.8246 12.0635 81.4353 12.0635C 82.2374 12.0635 82.823 11.7035 83.1921 10.9834L 83.1921 7.58594C 82.8139 6.88867 82.2328 6.54004 81.449 6.54004C 80.8292 6.54004 80.3461 6.7793 79.9997 7.25781C 79.6534 7.73633 79.4802 8.44499 79.4802 9.38379Z"/>
<path id="path7_fill" d="M 46.2712 13L 46.2712 7.05273L 45.1706 7.05273L 45.1706 5.60352L 46.2712 5.60352L 46.2712 4.97461C 46.2712 4.14518 46.5082 3.5026 46.9822 3.04688C 47.4607 2.58659 48.1283 2.35645 48.9851 2.35645C 49.2585 2.35645 49.5935 2.40202 49.99 2.49316L 49.9695 4.02441C 49.8054 3.9834 49.6049 3.96289 49.3679 3.96289C 48.6251 3.96289 48.2536 4.31152 48.2536 5.00879L 48.2536 5.60352L 49.7234 5.60352L 49.7234 7.05273L 48.2536 7.05273L 48.2536 13L 46.2712 13ZM 55.0349 13C 54.9437 12.8223 54.8777 12.6012 54.8366 12.3369C 54.3581 12.8701 53.7361 13.1367 52.9704 13.1367C 52.2458 13.1367 51.6443 12.9271 51.1657 12.5078C 50.6918 12.0885 50.4548 11.5599 50.4548 10.9219C 50.4548 10.138 50.7442 9.53646 51.323 9.11719C 51.9063 8.69792 52.7471 8.486 53.8454 8.48145L 54.7546 8.48145L 54.7546 8.05762C 54.7546 7.71582 54.6657 7.44238 54.488 7.2373C 54.3148 7.03223 54.0391 6.92969 53.6609 6.92969C 53.3282 6.92969 53.0661 7.00944 52.8747 7.16895C 52.6879 7.32845 52.5945 7.5472 52.5945 7.8252L 50.6189 7.8252C 50.6189 7.39681 50.751 7.00033 51.0154 6.63574C 51.2797 6.27116 51.6534 5.98633 52.1365 5.78125C 52.6195 5.57161 53.1618 5.4668 53.7634 5.4668C 54.6749 5.4668 55.3972 5.69694 55.9304 6.15723C 56.4682 6.61296 56.737 7.25553 56.737 8.08496L 56.737 11.291C 56.7416 11.9928 56.8396 12.5238 57.031 12.8838L 57.031 13L 55.0349 13ZM 53.4011 11.626C 53.6928 11.626 53.9616 11.5622 54.2077 11.4346C 54.4538 11.3024 54.6361 11.127 54.7546 10.9082L 54.7546 9.63672L 54.0163 9.63672C 53.0274 9.63672 52.501 9.97852 52.4372 10.6621L 52.4304 10.7783C 52.4304 11.0244 52.517 11.2272 52.6902 11.3867C 52.8633 11.5462 53.1003 11.626 53.4011 11.626ZM 61.3308 11.5439C 61.6954 11.5439 61.9916 11.4437 62.2195 11.2432C 62.4473 11.0426 62.5658 10.776 62.5749 10.4434L 64.4275 10.4434C 64.4229 10.9447 64.2862 11.4049 64.0173 11.8242C 63.7484 12.2389 63.3793 12.5625 62.9099 12.7949C 62.445 13.0228 61.9301 13.1367 61.365 13.1367C 60.3077 13.1367 59.4737 12.8018 58.863 12.1318C 58.2523 11.4574 57.947 10.5277 57.947 9.34277L 57.947 9.21289C 57.947 8.07357 58.2501 7.16439 58.8562 6.48535C 59.4623 5.80631 60.294 5.4668 61.3513 5.4668C 62.2764 5.4668 63.017 5.73112 63.573 6.25977C 64.1335 6.78385 64.4184 7.4834 64.4275 8.3584L 62.5749 8.3584C 62.5658 7.97559 62.4473 7.66569 62.2195 7.42871C 61.9916 7.18717 61.6908 7.06641 61.3171 7.06641C 60.8568 7.06641 60.5082 7.23503 60.2712 7.57227C 60.0388 7.90495 59.9226 8.44727 59.9226 9.19922L 59.9226 9.4043C 59.9226 10.1654 60.0388 10.7122 60.2712 11.0449C 60.5036 11.3776 60.8568 11.5439 61.3308 11.5439ZM 67.9206 3.78516L 67.9206 5.60352L 69.1853 5.60352L 69.1853 7.05273L 67.9206 7.05273L 67.9206 10.7441C 67.9206 11.0176 67.973 11.2135 68.0779 11.332C 68.1827 11.4505 68.3832 11.5098 68.6794 11.5098C 68.8982 11.5098 69.0919 11.4938 69.2605 11.4619L 69.2605 12.959C 68.8731 13.0775 68.4743 13.1367 68.0642 13.1367C 66.6788 13.1367 65.9724 12.4372 65.945 11.0381L 65.945 7.05273L 64.865 7.05273L 64.865 5.60352L 65.945 5.60352L 65.945 3.78516L 67.9206 3.78516ZM 74.2917 10.9561C 74.2917 10.7145 74.171 10.5254 73.9294 10.3887C 73.6924 10.2474 73.3096 10.1221 72.781 10.0127C 71.0219 9.64355 70.1423 8.89616 70.1423 7.77051C 70.1423 7.11426 70.4135 6.56738 70.9558 6.12988C 71.5027 5.68783 72.2159 5.4668 73.0954 5.4668C 74.0342 5.4668 74.7839 5.68783 75.3445 6.12988C 75.9096 6.57194 76.1921 7.14616 76.1921 7.85254L 74.2165 7.85254C 74.2165 7.56999 74.1254 7.33757 73.9431 7.15527C 73.7608 6.96842 73.476 6.875 73.0886 6.875C 72.7559 6.875 72.4984 6.9502 72.3161 7.10059C 72.1338 7.25098 72.0427 7.44238 72.0427 7.6748C 72.0427 7.89355 72.1452 8.07129 72.3503 8.20801C 72.56 8.34017 72.9109 8.45638 73.4031 8.55664C 73.8952 8.65234 74.31 8.76172 74.6472 8.88477C 75.6908 9.26758 76.2126 9.93066 76.2126 10.874C 76.2126 11.5485 75.9232 12.0954 75.3445 12.5146C 74.7657 12.9294 74.0183 13.1367 73.1023 13.1367C 72.4825 13.1367 71.931 13.0273 71.448 12.8086C 70.9695 12.5853 70.5935 12.2822 70.32 11.8994C 70.0466 11.512 69.9099 11.0951 69.9099 10.6484L 71.7829 10.6484C 71.8012 10.9993 71.931 11.2682 72.1726 11.4551C 72.4141 11.6419 72.7377 11.7354 73.1433 11.7354C 73.5215 11.7354 73.8064 11.6647 73.9978 11.5234C 74.1937 11.3776 74.2917 11.1885 74.2917 10.9561Z"/>
<path id="path8_fill" d="M 47.5632 11.5439C 47.9278 11.5439 48.224 11.4437 48.4519 11.2432C 48.6797 11.0426 48.7982 10.776 48.8074 10.4434L 50.6599 10.4434C 50.6553 10.9447 50.5186 11.4049 50.2497 11.8242C 49.9809 12.2389 49.6117 12.5625 49.1423 12.7949C 48.6775 13.0228 48.1625 13.1367 47.5974 13.1367C 46.5401 13.1367 45.7061 12.8018 45.0954 12.1318C 44.4848 11.4574 44.1794 10.5277 44.1794 9.34277L 44.1794 9.21289C 44.1794 8.07357 44.4825 7.16439 45.0886 6.48535C 45.6947 5.80631 46.5264 5.4668 47.5837 5.4668C 48.5088 5.4668 49.2494 5.73112 49.8054 6.25977C 50.3659 6.78385 50.6508 7.4834 50.6599 8.3584L 48.8074 8.3584C 48.7982 7.97559 48.6797 7.66569 48.4519 7.42871C 48.224 7.18717 47.9232 7.06641 47.5495 7.06641C 47.0893 7.06641 46.7406 7.23503 46.5036 7.57227C 46.2712 7.90495 46.155 8.44727 46.155 9.19922L 46.155 9.4043C 46.155 10.1654 46.2712 10.7122 46.5036 11.0449C 46.7361 11.3776 47.0893 11.5439 47.5632 11.5439ZM 53.8728 13L 51.8904 13L 51.8904 5.60352L 53.8728 5.60352L 53.8728 13ZM 51.7741 3.68945C 51.7741 3.39323 51.8721 3.14941 52.0681 2.95801C 52.2686 2.7666 52.5398 2.6709 52.8816 2.6709C 53.2188 2.6709 53.4877 2.7666 53.6882 2.95801C 53.8887 3.14941 53.989 3.39323 53.989 3.68945C 53.989 3.99023 53.8865 4.23633 53.6814 4.42773C 53.4809 4.61914 53.2143 4.71484 52.8816 4.71484C 52.5489 4.71484 52.28 4.61914 52.0749 4.42773C 51.8744 4.23633 51.7741 3.99023 51.7741 3.68945ZM 57.8718 3.78516L 57.8718 5.60352L 59.1365 5.60352L 59.1365 7.05273L 57.8718 7.05273L 57.8718 10.7441C 57.8718 11.0176 57.9242 11.2135 58.029 11.332C 58.1338 11.4505 58.3344 11.5098 58.6306 11.5098C 58.8493 11.5098 59.043 11.4938 59.2116 11.4619L 59.2116 12.959C 58.8243 13.0775 58.4255 13.1367 58.0154 13.1367C 56.6299 13.1367 55.9236 12.4372 55.8962 11.0381L 55.8962 7.05273L 54.8161 7.05273L 54.8161 5.60352L 55.8962 5.60352L 55.8962 3.78516L 57.8718 3.78516ZM 62.322 13L 60.3396 13L 60.3396 5.60352L 62.322 5.60352L 62.322 13ZM 60.2234 3.68945C 60.2234 3.39323 60.3213 3.14941 60.5173 2.95801C 60.7178 2.7666 60.989 2.6709 61.3308 2.6709C 61.668 2.6709 61.9369 2.7666 62.1374 2.95801C 62.3379 3.14941 62.4382 3.39323 62.4382 3.68945C 62.4382 3.99023 62.3357 4.23633 62.1306 4.42773C 61.9301 4.61914 61.6635 4.71484 61.3308 4.71484C 60.9981 4.71484 60.7292 4.61914 60.5241 4.42773C 60.3236 4.23633 60.2234 3.99023 60.2234 3.68945ZM 67.3601 13.1367C 66.2754 13.1367 65.3913 12.804 64.7077 12.1387C 64.0287 11.4733 63.6892 10.5869 63.6892 9.47949L 63.6892 9.28809C 63.6892 8.54525 63.8327 7.88216 64.1199 7.29883C 64.407 6.71094 64.8126 6.25977 65.3366 5.94531C 65.8653 5.6263 66.4669 5.4668 67.1413 5.4668C 68.1531 5.4668 68.9483 5.78581 69.5271 6.42383C 70.1104 7.06185 70.4021 7.96647 70.4021 9.1377L 70.4021 9.94434L 65.6921 9.94434C 65.7559 10.4274 65.9473 10.8148 66.2663 11.1064C 66.5899 11.3981 66.9978 11.5439 67.49 11.5439C 68.251 11.5439 68.8458 11.2682 69.2741 10.7168L 70.2449 11.8037C 69.9486 12.223 69.5476 12.5511 69.0417 12.7881C 68.5359 13.0205 67.9753 13.1367 67.3601 13.1367ZM 67.1345 7.06641C 66.7426 7.06641 66.4236 7.19857 66.1775 7.46289C 65.9359 7.72721 65.781 8.10547 65.7126 8.59766L 68.4607 8.59766L 68.4607 8.44043C 68.4516 8.00293 68.3331 7.66569 68.1052 7.42871C 67.8773 7.18717 67.5538 7.06641 67.1345 7.06641ZM 75.5359 10.9561C 75.5359 10.7145 75.4151 10.5254 75.1736 10.3887C 74.9366 10.2474 74.5538 10.1221 74.0251 10.0127C 72.266 9.64355 71.3865 8.89616 71.3865 7.77051C 71.3865 7.11426 71.6576 6.56738 72.1999 6.12988C 72.7468 5.68783 73.46 5.4668 74.3396 5.4668C 75.2784 5.4668 76.0281 5.68783 76.5886 6.12988C 77.1537 6.57194 77.4363 7.14616 77.4363 7.85254L 75.4607 7.85254C 75.4607 7.56999 75.3695 7.33757 75.1872 7.15527C 75.0049 6.96842 74.7201 6.875 74.3327 6.875C 74.0001 6.875 73.7426 6.9502 73.5603 7.10059C 73.378 7.25098 73.2868 7.44238 73.2868 7.6748C 73.2868 7.89355 73.3894 8.07129 73.5945 8.20801C 73.8041 8.34017 74.155 8.45638 74.6472 8.55664C 75.1394 8.65234 75.5541 8.76172 75.8913 8.88477C 76.935 9.26758 77.4568 9.93066 77.4568 10.874C 77.4568 11.5485 77.1674 12.0954 76.5886 12.5146C 76.0098 12.9294 75.2624 13.1367 74.3464 13.1367C 73.7266 13.1367 73.1752 13.0273 72.6921 12.8086C 72.2136 12.5853 71.8376 12.2822 71.5642 11.8994C 71.2907 11.512 71.154 11.0951 71.154 10.6484L 73.0271 10.6484C 73.0453 10.9993 73.1752 11.2682 73.4167 11.4551C 73.6583 11.6419 73.9818 11.7354 74.3874 11.7354C 74.7657 11.7354 75.0505 11.6647 75.2419 11.5234C 75.4379 11.3776 75.5359 11.1885 75.5359 10.9561Z"/>
<path id="path9_fill" d="M 49.4568 12.1045C 49.9079 12.1045 50.3021 11.9678 50.6394 11.6943C 50.9766 11.4209 51.1635 11.0791 51.1999 10.6689L 52.3962 10.6689C 52.3734 11.0928 52.2276 11.4961 51.9587 11.8789C 51.6898 12.2617 51.3298 12.5671 50.8786 12.7949C 50.432 13.0228 49.9581 13.1367 49.4568 13.1367C 48.4496 13.1367 47.6475 12.8018 47.0505 12.1318C 46.4581 11.4574 46.1618 10.5368 46.1618 9.37012L 46.1618 9.1582C 46.1618 8.43815 46.294 7.79785 46.5583 7.2373C 46.8226 6.67676 47.2009 6.24154 47.6931 5.93164C 48.1898 5.62174 48.7754 5.4668 49.4499 5.4668C 50.2794 5.4668 50.9675 5.71517 51.5144 6.21191C 52.0658 6.70866 52.3598 7.35352 52.3962 8.14648L 51.1999 8.14648C 51.1635 7.66797 50.9812 7.27604 50.6531 6.9707C 50.3295 6.66081 49.9284 6.50586 49.4499 6.50586C 48.8074 6.50586 48.3083 6.73828 47.9529 7.20312C 47.6019 7.66341 47.4265 8.33105 47.4265 9.20605L 47.4265 9.44531C 47.4265 10.2975 47.6019 10.9538 47.9529 11.4141C 48.3038 11.8743 48.8051 12.1045 49.4568 12.1045ZM 53.4831 9.2334C 53.4831 8.50879 53.6244 7.8571 53.907 7.27832C 54.1941 6.69954 54.5906 6.25293 55.0964 5.93848C 55.6068 5.62402 56.1879 5.4668 56.8396 5.4668C 57.8467 5.4668 58.6602 5.81543 59.28 6.5127C 59.9044 7.20996 60.2165 8.13737 60.2165 9.29492L 60.2165 9.38379C 60.2165 10.1038 60.0775 10.751 59.7995 11.3252C 59.5261 11.8949 59.1319 12.3392 58.6169 12.6582C 58.1065 12.9772 57.5186 13.1367 56.8532 13.1367C 55.8506 13.1367 55.0372 12.7881 54.4128 12.0908C 53.793 11.3936 53.4831 10.4707 53.4831 9.32227L 53.4831 9.2334ZM 54.7546 9.38379C 54.7546 10.2041 54.9437 10.8626 55.322 11.3594C 55.7048 11.8561 56.2152 12.1045 56.8532 12.1045C 57.4958 12.1045 58.0062 11.8538 58.3845 11.3525C 58.7628 10.8467 58.9519 10.1403 58.9519 9.2334C 58.9519 8.4222 58.7582 7.76595 58.3708 7.26465C 57.988 6.75879 57.4776 6.50586 56.8396 6.50586C 56.2152 6.50586 55.7116 6.75423 55.3288 7.25098C 54.946 7.74772 54.7546 8.45866 54.7546 9.38379ZM 61.4949 9.24023C 61.4949 8.10547 61.7637 7.19401 62.3015 6.50586C 62.8393 5.81315 63.5434 5.4668 64.4138 5.4668C 65.2797 5.4668 65.9656 5.76302 66.4714 6.35547L 66.4714 2.5L 67.7361 2.5L 67.7361 13L 66.574 13L 66.5124 12.207C 66.0066 12.8268 65.3025 13.1367 64.4001 13.1367C 63.5434 13.1367 62.8438 12.7858 62.3015 12.084C 61.7637 11.3822 61.4949 10.4661 61.4949 9.33594L 61.4949 9.24023ZM 62.7595 9.38379C 62.7595 10.2223 62.9327 10.8786 63.279 11.3525C 63.6254 11.8265 64.1039 12.0635 64.7146 12.0635C 65.5167 12.0635 66.1023 11.7035 66.4714 10.9834L 66.4714 7.58594C 66.0932 6.88867 65.5121 6.54004 64.7282 6.54004C 64.1085 6.54004 63.6254 6.7793 63.279 7.25781C 62.9327 7.73633 62.7595 8.44499 62.7595 9.38379ZM 72.7741 13.1367C 71.7715 13.1367 70.9558 12.8086 70.3269 12.1523C 69.698 11.4915 69.3835 10.6097 69.3835 9.50684L 69.3835 9.27441C 69.3835 8.54069 69.5225 7.88672 69.8005 7.3125C 70.0831 6.73372 70.475 6.28255 70.9763 5.95898C 71.4822 5.63086 72.029 5.4668 72.6169 5.4668C 73.5785 5.4668 74.3259 5.78353 74.8591 6.41699C 75.3923 7.05046 75.6589 7.95736 75.6589 9.1377L 75.6589 9.66406L 70.6482 9.66406C 70.6664 10.3932 70.8783 10.9834 71.2839 11.4346C 71.6941 11.8812 72.2136 12.1045 72.8425 12.1045C 73.2891 12.1045 73.6674 12.0133 73.9773 11.8311C 74.2872 11.6488 74.5583 11.4072 74.7907 11.1064L 75.5632 11.708C 74.9434 12.6605 74.0137 13.1367 72.7741 13.1367ZM 72.6169 6.50586C 72.1065 6.50586 71.6781 6.69271 71.3318 7.06641C 70.9854 7.43555 70.7712 7.95508 70.6892 8.625L 74.3943 8.625L 74.3943 8.5293C 74.3578 7.88672 74.1846 7.38997 73.8747 7.03906C 73.5648 6.68359 73.1456 6.50586 72.6169 6.50586Z"/>
<path id="path10_fill" d="M 52.7449 13C 52.6719 12.8542 52.6127 12.5944 52.5671 12.2207C 51.9792 12.8314 51.2774 13.1367 50.4616 13.1367C 49.7325 13.1367 49.1332 12.9316 48.6638 12.5215C 48.199 12.1068 47.9665 11.5827 47.9665 10.9492C 47.9665 10.179 48.2582 9.58203 48.8415 9.1582C 49.4294 8.72982 50.2543 8.51562 51.3161 8.51562L 52.5466 8.51562L 52.5466 7.93457C 52.5466 7.49251 52.4144 7.1416 52.1501 6.88184C 51.8858 6.61751 51.4962 6.48535 50.9812 6.48535C 50.53 6.48535 50.1518 6.59928 49.8464 6.82715C 49.5411 7.05501 49.3884 7.33073 49.3884 7.6543L 48.1169 7.6543C 48.1169 7.28516 48.2468 6.92969 48.5066 6.58789C 48.7709 6.24154 49.1264 5.9681 49.573 5.76758C 50.0241 5.56706 50.5186 5.4668 51.0564 5.4668C 51.9086 5.4668 52.5762 5.68099 53.0593 6.10938C 53.5424 6.5332 53.793 7.11882 53.8113 7.86621L 53.8113 11.2705C 53.8113 11.9495 53.8978 12.4896 54.071 12.8906L 54.071 13L 52.7449 13ZM 50.6462 12.0361C 51.0427 12.0361 51.4187 11.9336 51.7741 11.7285C 52.1296 11.5234 52.3871 11.2568 52.5466 10.9287L 52.5466 9.41113L 51.5554 9.41113C 50.0059 9.41113 49.2312 9.86458 49.2312 10.7715C 49.2312 11.168 49.3633 11.4779 49.6277 11.7012C 49.892 11.9245 50.2315 12.0361 50.6462 12.0361ZM 59.3689 6.73828C 59.1775 6.70638 58.9701 6.69043 58.7468 6.69043C 57.9174 6.69043 57.3546 7.04362 57.0583 7.75L 57.0583 13L 55.7937 13L 55.7937 5.60352L 57.0241 5.60352L 57.0447 6.45801C 57.4594 5.7972 58.0473 5.4668 58.8083 5.4668C 59.0544 5.4668 59.2413 5.4987 59.3689 5.5625L 59.3689 6.73828ZM 63.4704 13.1367C 62.4678 13.1367 61.6521 12.8086 61.0232 12.1523C 60.3943 11.4915 60.0798 10.6097 60.0798 9.50684L 60.0798 9.27441C 60.0798 8.54069 60.2188 7.88672 60.4968 7.3125C 60.7794 6.73372 61.1713 6.28255 61.6726 5.95898C 62.1784 5.63086 62.7253 5.4668 63.3132 5.4668C 64.2748 5.4668 65.0222 5.78353 65.5554 6.41699C 66.0886 7.05046 66.3552 7.95736 66.3552 9.1377L 66.3552 9.66406L 61.3445 9.66406C 61.3627 10.3932 61.5746 10.9834 61.9802 11.4346C 62.3904 11.8812 62.9099 12.1045 63.5388 12.1045C 63.9854 12.1045 64.3637 12.0133 64.6736 11.8311C 64.9835 11.6488 65.2546 11.4072 65.487 11.1064L 66.2595 11.708C 65.6397 12.6605 64.71 13.1367 63.4704 13.1367ZM 63.3132 6.50586C 62.8028 6.50586 62.3744 6.69271 62.0281 7.06641C 61.6817 7.43555 61.4675 7.95508 61.3855 8.625L 65.0906 8.625L 65.0906 8.5293C 65.0541 7.88672 64.8809 7.38997 64.571 7.03906C 64.2611 6.68359 63.8419 6.50586 63.3132 6.50586ZM 72.3913 13C 72.3184 12.8542 72.2592 12.5944 72.2136 12.2207C 71.6257 12.8314 70.9239 13.1367 70.1081 13.1367C 69.379 13.1367 68.7797 12.9316 68.3103 12.5215C 67.8454 12.1068 67.613 11.5827 67.613 10.9492C 67.613 10.179 67.9047 9.58203 68.488 9.1582C 69.0759 8.72982 69.9008 8.51562 70.9626 8.51562L 72.1931 8.51562L 72.1931 7.93457C 72.1931 7.49251 72.0609 7.1416 71.7966 6.88184C 71.5323 6.61751 71.1426 6.48535 70.6277 6.48535C 70.1765 6.48535 69.7982 6.59928 69.4929 6.82715C 69.1876 7.05501 69.0349 7.33073 69.0349 7.6543L 67.7634 7.6543C 67.7634 7.28516 67.8933 6.92969 68.1531 6.58789C 68.4174 6.24154 68.7728 5.9681 69.2195 5.76758C 69.6706 5.56706 70.1651 5.4668 70.7029 5.4668C 71.5551 5.4668 72.2227 5.68099 72.7058 6.10938C 73.1889 6.5332 73.4395 7.11882 73.4577 7.86621L 73.4577 11.2705C 73.4577 11.9495 73.5443 12.4896 73.7175 12.8906L 73.7175 13L 72.3913 13ZM 70.2927 12.0361C 70.6892 12.0361 71.0652 11.9336 71.4206 11.7285C 71.7761 11.5234 72.0336 11.2568 72.1931 10.9287L 72.1931 9.41113L 71.2019 9.41113C 69.6524 9.41113 68.8777 9.86458 68.8777 10.7715C 68.8777 11.168 69.0098 11.4779 69.2741 11.7012C 69.5385 11.9245 69.878 12.0361 70.2927 12.0361Z"/>
<path id="path11_fill" d="M 36.2634 13C 36.1905 12.8542 36.1312 12.5944 36.0857 12.2207C 35.4978 12.8314 34.796 13.1367 33.9802 13.1367C 33.251 13.1367 32.6518 12.9316 32.1824 12.5215C 31.7175 12.1068 31.4851 11.5827 31.4851 10.9492C 31.4851 10.179 31.7768 9.58203 32.3601 9.1582C 32.948 8.72982 33.7728 8.51562 34.8347 8.51562L 36.0652 8.51562L 36.0652 7.93457C 36.0652 7.49251 35.933 7.1416 35.6687 6.88184C 35.4044 6.61751 35.0147 6.48535 34.4997 6.48535C 34.0486 6.48535 33.6703 6.59928 33.365 6.82715C 33.0596 7.05501 32.907 7.33073 32.907 7.6543L 31.6355 7.6543C 31.6355 7.28516 31.7654 6.92969 32.0251 6.58789C 32.2894 6.24154 32.6449 5.9681 33.0915 5.76758C 33.5427 5.56706 34.0372 5.4668 34.5749 5.4668C 35.4271 5.4668 36.0948 5.68099 36.5779 6.10938C 37.0609 6.5332 37.3116 7.11882 37.3298 7.86621L 37.3298 11.2705C 37.3298 11.9495 37.4164 12.4896 37.5896 12.8906L 37.5896 13L 36.2634 13ZM 34.1648 12.0361C 34.5613 12.0361 34.9372 11.9336 35.2927 11.7285C 35.6482 11.5234 35.9057 11.2568 36.0652 10.9287L 36.0652 9.41113L 35.074 9.41113C 33.5245 9.41113 32.7497 9.86458 32.7497 10.7715C 32.7497 11.168 32.8819 11.4779 33.1462 11.7012C 33.4105 11.9245 33.7501 12.0361 34.1648 12.0361ZM 42.8874 6.73828C 42.696 6.70638 42.4887 6.69043 42.2654 6.69043C 41.4359 6.69043 40.8731 7.04362 40.5769 7.75L 40.5769 13L 39.3122 13L 39.3122 5.60352L 40.5427 5.60352L 40.5632 6.45801C 40.9779 5.7972 41.5658 5.4668 42.3269 5.4668C 42.573 5.4668 42.7598 5.4987 42.8874 5.5625L 42.8874 6.73828ZM 46.989 13.1367C 45.9864 13.1367 45.1706 12.8086 44.5417 12.1523C 43.9128 11.4915 43.5984 10.6097 43.5984 9.50684L 43.5984 9.27441C 43.5984 8.54069 43.7374 7.88672 44.0154 7.3125C 44.2979 6.73372 44.6898 6.28255 45.1911 5.95898C 45.697 5.63086 46.2439 5.4668 46.8318 5.4668C 47.7934 5.4668 48.5407 5.78353 49.074 6.41699C 49.6072 7.05046 49.8738 7.95736 49.8738 9.1377L 49.8738 9.66406L 44.863 9.66406C 44.8812 10.3932 45.0932 10.9834 45.4988 11.4346C 45.9089 11.8812 46.4284 12.1045 47.0574 12.1045C 47.504 12.1045 47.8822 12.0133 48.1921 11.8311C 48.502 11.6488 48.7732 11.4072 49.0056 11.1064L 49.7781 11.708C 49.1583 12.6605 48.2286 13.1367 46.989 13.1367ZM 46.8318 6.50586C 46.3213 6.50586 45.893 6.69271 45.5466 7.06641C 45.2003 7.43555 44.9861 7.95508 44.904 8.625L 48.6091 8.625L 48.6091 8.5293C 48.5726 7.88672 48.3995 7.38997 48.0896 7.03906C 47.7797 6.68359 47.3604 6.50586 46.8318 6.50586ZM 55.9099 13C 55.837 12.8542 55.7777 12.5944 55.7322 12.2207C 55.1443 12.8314 54.4424 13.1367 53.6267 13.1367C 52.8975 13.1367 52.2982 12.9316 51.8288 12.5215C 51.364 12.1068 51.1316 11.5827 51.1316 10.9492C 51.1316 10.179 51.4232 9.58203 52.0066 9.1582C 52.5945 8.72982 53.4193 8.51562 54.4812 8.51562L 55.7116 8.51562L 55.7116 7.93457C 55.7116 7.49251 55.5795 7.1416 55.3152 6.88184C 55.0508 6.61751 54.6612 6.48535 54.1462 6.48535C 53.695 6.48535 53.3168 6.59928 53.0115 6.82715C 52.7061 7.05501 52.5534 7.33073 52.5534 7.6543L 51.282 7.6543C 51.282 7.28516 51.4118 6.92969 51.6716 6.58789C 51.9359 6.24154 52.2914 5.9681 52.738 5.76758C 53.1892 5.56706 53.6837 5.4668 54.2214 5.4668C 55.0736 5.4668 55.7413 5.68099 56.2243 6.10938C 56.7074 6.5332 56.9581 7.11882 56.9763 7.86621L 56.9763 11.2705C 56.9763 11.9495 57.0629 12.4896 57.2361 12.8906L 57.2361 13L 55.9099 13ZM 53.8113 12.0361C 54.2077 12.0361 54.5837 11.9336 54.9392 11.7285C 55.2947 11.5234 55.5521 11.2568 55.7116 10.9287L 55.7116 9.41113L 54.7204 9.41113C 53.171 9.41113 52.3962 9.86458 52.3962 10.7715C 52.3962 11.168 52.5284 11.4779 52.7927 11.7012C 53.057 11.9245 53.3965 12.0361 53.8113 12.0361ZM 64.2907 14.0322L 58.029 14.0322L 58.029 13L 64.2907 13L 64.2907 14.0322ZM 66.6491 13L 65.3845 13L 65.3845 2.5L 66.6491 2.5L 66.6491 13ZM 73.2458 13C 73.1729 12.8542 73.1137 12.5944 73.0681 12.2207C 72.4802 12.8314 71.7784 13.1367 70.9626 13.1367C 70.2335 13.1367 69.6342 12.9316 69.1648 12.5215C 68.6999 12.1068 68.4675 11.5827 68.4675 10.9492C 68.4675 10.179 68.7592 9.58203 69.3425 9.1582C 69.9304 8.72982 70.7553 8.51562 71.8171 8.51562L 73.0476 8.51562L 73.0476 7.93457C 73.0476 7.49251 72.9154 7.1416 72.6511 6.88184C 72.3868 6.61751 71.9971 6.48535 71.4822 6.48535C 71.031 6.48535 70.6527 6.59928 70.3474 6.82715C 70.0421 7.05501 69.8894 7.33073 69.8894 7.6543L 68.6179 7.6543C 68.6179 7.28516 68.7478 6.92969 69.0075 6.58789C 69.2719 6.24154 69.6273 5.9681 70.074 5.76758C 70.5251 5.56706 71.0196 5.4668 71.5574 5.4668C 72.4096 5.4668 73.0772 5.68099 73.5603 6.10938C 74.0434 6.5332 74.294 7.11882 74.3122 7.86621L 74.3122 11.2705C 74.3122 11.9495 74.3988 12.4896 74.572 12.8906L 74.572 13L 73.2458 13ZM 71.1472 12.0361C 71.5437 12.0361 71.9197 11.9336 72.2751 11.7285C 72.6306 11.5234 72.8881 11.2568 73.0476 10.9287L 73.0476 9.41113L 72.0564 9.41113C 70.5069 9.41113 69.7322 9.86458 69.7322 10.7715C 69.7322 11.168 69.8643 11.4779 70.1286 11.7012C 70.393 11.9245 70.7325 12.0361 71.1472 12.0361ZM 77.4909 5.60352L 77.532 6.5332C 78.0971 5.82227 78.8353 5.4668 79.7468 5.4668C 81.31 5.4668 82.0984 6.34863 82.112 8.1123L 82.112 13L 80.8474 13L 80.8474 8.10547C 80.8428 7.57227 80.7198 7.17806 80.4782 6.92285C 80.2413 6.66764 79.8699 6.54004 79.364 6.54004C 78.9538 6.54004 78.5938 6.64941 78.2839 6.86816C 77.974 7.08691 77.7325 7.37402 77.5593 7.72949L 77.5593 13L 76.2947 13L 76.2947 5.60352L 77.4909 5.60352ZM 83.7116 9.24023C 83.7116 8.10547 83.9805 7.19401 84.5183 6.50586C 85.056 5.81315 85.7601 5.4668 86.6306 5.4668C 87.4965 5.4668 88.1824 5.76302 88.6882 6.35547L 88.6882 2.5L 89.9529 2.5L 89.9529 13L 88.7907 13L 88.7292 12.207C 88.2234 12.8268 87.5193 13.1367 86.6169 13.1367C 85.7601 13.1367 85.0606 12.7858 84.5183 12.084C 83.9805 11.3822 83.7116 10.4661 83.7116 9.33594L 83.7116 9.24023ZM 84.9763 9.38379C 84.9763 10.2223 85.1495 10.8786 85.4958 11.3525C 85.8422 11.8265 86.3207 12.0635 86.9314 12.0635C 87.7335 12.0635 88.3191 11.7035 88.6882 10.9834L 88.6882 7.58594C 88.31 6.88867 87.7289 6.54004 86.945 6.54004C 86.3253 6.54004 85.8422 6.7793 85.4958 7.25781C 85.1495 7.73633 84.9763 8.44499 84.9763 9.38379Z"/>
<path id="path12_fill" d="M 32.1413 13C 32.0684 12.8542 32.0092 12.5944 31.9636 12.2207C 31.3757 12.8314 30.6739 13.1367 29.8581 13.1367C 29.129 13.1367 28.5297 12.9316 28.0603 12.5215C 27.5954 12.1068 27.363 11.5827 27.363 10.9492C 27.363 10.179 27.6547 9.58203 28.238 9.1582C 28.8259 8.72982 29.6508 8.51562 30.7126 8.51562L 31.9431 8.51562L 31.9431 7.93457C 31.9431 7.49251 31.8109 7.1416 31.5466 6.88184C 31.2823 6.61751 30.8926 6.48535 30.3777 6.48535C 29.9265 6.48535 29.5482 6.59928 29.2429 6.82715C 28.9376 7.05501 28.7849 7.33073 28.7849 7.6543L 27.5134 7.6543C 27.5134 7.28516 27.6433 6.92969 27.9031 6.58789C 28.1674 6.24154 28.5228 5.9681 28.9695 5.76758C 29.4206 5.56706 29.9151 5.4668 30.4529 5.4668C 31.3051 5.4668 31.9727 5.68099 32.4558 6.10938C 32.9389 6.5332 33.1895 7.11882 33.2077 7.86621L 33.2077 11.2705C 33.2077 11.9495 33.2943 12.4896 33.4675 12.8906L 33.4675 13L 32.1413 13ZM 30.0427 12.0361C 30.4392 12.0361 30.8152 11.9336 31.1706 11.7285C 31.5261 11.5234 31.7836 11.2568 31.9431 10.9287L 31.9431 9.41113L 30.9519 9.41113C 29.4024 9.41113 28.6277 9.86458 28.6277 10.7715C 28.6277 11.168 28.7598 11.4779 29.0241 11.7012C 29.2885 11.9245 29.628 12.0361 30.0427 12.0361ZM 38.7654 6.73828C 38.574 6.70638 38.3666 6.69043 38.1433 6.69043C 37.3139 6.69043 36.751 7.04362 36.4548 7.75L 36.4548 13L 35.1902 13L 35.1902 5.60352L 36.4206 5.60352L 36.4411 6.45801C 36.8559 5.7972 37.4437 5.4668 38.2048 5.4668C 38.4509 5.4668 38.6378 5.4987 38.7654 5.5625L 38.7654 6.73828ZM 42.8669 13.1367C 41.8643 13.1367 41.0486 12.8086 40.4197 12.1523C 39.7907 11.4915 39.4763 10.6097 39.4763 9.50684L 39.4763 9.27441C 39.4763 8.54069 39.6153 7.88672 39.8933 7.3125C 40.1758 6.73372 40.5678 6.28255 41.0691 5.95898C 41.5749 5.63086 42.1218 5.4668 42.7097 5.4668C 43.6713 5.4668 44.4187 5.78353 44.9519 6.41699C 45.4851 7.05046 45.7517 7.95736 45.7517 9.1377L 45.7517 9.66406L 40.7409 9.66406C 40.7592 10.3932 40.9711 10.9834 41.3767 11.4346C 41.7868 11.8812 42.3064 12.1045 42.9353 12.1045C 43.3819 12.1045 43.7601 12.0133 44.07 11.8311C 44.3799 11.6488 44.6511 11.4072 44.8835 11.1064L 45.656 11.708C 45.0362 12.6605 44.1065 13.1367 42.8669 13.1367ZM 42.7097 6.50586C 42.1993 6.50586 41.7709 6.69271 41.4245 7.06641C 41.0782 7.43555 40.864 7.95508 40.782 8.625L 44.487 8.625L 44.487 8.5293C 44.4506 7.88672 44.2774 7.38997 43.9675 7.03906C 43.6576 6.68359 43.2383 6.50586 42.7097 6.50586ZM 51.7878 13C 51.7149 12.8542 51.6557 12.5944 51.6101 12.2207C 51.0222 12.8314 50.3204 13.1367 49.5046 13.1367C 48.7754 13.1367 48.1762 12.9316 47.7068 12.5215C 47.2419 12.1068 47.0095 11.5827 47.0095 10.9492C 47.0095 10.179 47.3012 9.58203 47.8845 9.1582C 48.4724 8.72982 49.2973 8.51562 50.3591 8.51562L 51.5896 8.51562L 51.5896 7.93457C 51.5896 7.49251 51.4574 7.1416 51.1931 6.88184C 50.9288 6.61751 50.5391 6.48535 50.0241 6.48535C 49.573 6.48535 49.1947 6.59928 48.8894 6.82715C 48.584 7.05501 48.4314 7.33073 48.4314 7.6543L 47.1599 7.6543C 47.1599 7.28516 47.2898 6.92969 47.5495 6.58789C 47.8139 6.24154 48.1693 5.9681 48.6159 5.76758C 49.0671 5.56706 49.5616 5.4668 50.0993 5.4668C 50.9516 5.4668 51.6192 5.68099 52.1023 6.10938C 52.5853 6.5332 52.836 7.11882 52.8542 7.86621L 52.8542 11.2705C 52.8542 11.9495 52.9408 12.4896 53.114 12.8906L 53.114 13L 51.7878 13ZM 49.6892 12.0361C 50.0857 12.0361 50.4616 11.9336 50.8171 11.7285C 51.1726 11.5234 51.4301 11.2568 51.5896 10.9287L 51.5896 9.41113L 50.5984 9.41113C 49.0489 9.41113 48.2741 9.86458 48.2741 10.7715C 48.2741 11.168 48.4063 11.4779 48.6706 11.7012C 48.935 11.9245 49.2745 12.0361 49.6892 12.0361ZM 60.1687 14.0322L 53.907 14.0322L 53.907 13L 60.1687 13L 60.1687 14.0322ZM 67.7019 11.2568L 69.1238 5.60352L 70.3884 5.60352L 68.2351 13L 67.2097 13L 65.4118 7.39453L 63.6618 13L 62.6365 13L 60.49 5.60352L 61.7478 5.60352L 63.2038 11.1406L 64.9265 5.60352L 65.945 5.60352L 67.7019 11.2568ZM 76.2468 13C 76.1739 12.8542 76.1146 12.5944 76.0691 12.2207C 75.4812 12.8314 74.7794 13.1367 73.9636 13.1367C 73.2344 13.1367 72.6351 12.9316 72.1657 12.5215C 71.7009 12.1068 71.4685 11.5827 71.4685 10.9492C 71.4685 10.179 71.7601 9.58203 72.3435 9.1582C 72.9314 8.72982 73.7562 8.51562 74.8181 8.51562L 76.0486 8.51562L 76.0486 7.93457C 76.0486 7.49251 75.9164 7.1416 75.6521 6.88184C 75.3878 6.61751 74.9981 6.48535 74.4831 6.48535C 74.032 6.48535 73.6537 6.59928 73.3484 6.82715C 73.043 7.05501 72.8904 7.33073 72.8904 7.6543L 71.6189 7.6543C 71.6189 7.28516 71.7488 6.92969 72.0085 6.58789C 72.2728 6.24154 72.6283 5.9681 73.0749 5.76758C 73.5261 5.56706 74.0206 5.4668 74.5583 5.4668C 75.4105 5.4668 76.0782 5.68099 76.5613 6.10938C 77.0443 6.5332 77.295 7.11882 77.3132 7.86621L 77.3132 11.2705C 77.3132 11.9495 77.3998 12.4896 77.573 12.8906L 77.573 13L 76.2468 13ZM 74.1482 12.0361C 74.5447 12.0361 74.9206 11.9336 75.2761 11.7285C 75.6316 11.5234 75.8891 11.2568 76.0486 10.9287L 76.0486 9.41113L 75.0574 9.41113C 73.5079 9.41113 72.7331 9.86458 72.7331 10.7715C 72.7331 11.168 72.8653 11.4779 73.1296 11.7012C 73.3939 11.9245 73.7335 12.0361 74.1482 12.0361ZM 81.0115 3.8125L 81.0115 5.60352L 82.3923 5.60352L 82.3923 6.58105L 81.0115 6.58105L 81.0115 11.168C 81.0115 11.4642 81.073 11.6875 81.196 11.8379C 81.3191 11.9837 81.5287 12.0566 81.8249 12.0566C 81.9708 12.0566 82.1713 12.0293 82.4265 11.9746L 82.4265 13C 82.0938 13.0911 81.7702 13.1367 81.4558 13.1367C 80.8907 13.1367 80.4646 12.9658 80.1775 12.624C 79.8904 12.2822 79.7468 11.7969 79.7468 11.168L 79.7468 6.58105L 78.4001 6.58105L 78.4001 5.60352L 79.7468 5.60352L 79.7468 3.8125L 81.0115 3.8125ZM 86.945 13.1367C 85.9424 13.1367 85.1267 12.8086 84.4978 12.1523C 83.8689 11.4915 83.5544 10.6097 83.5544 9.50684L 83.5544 9.27441C 83.5544 8.54069 83.6934 7.88672 83.9714 7.3125C 84.254 6.73372 84.6459 6.28255 85.1472 5.95898C 85.6531 5.63086 86.1999 5.4668 86.7878 5.4668C 87.7494 5.4668 88.4968 5.78353 89.03 6.41699C 89.5632 7.05046 89.8298 7.95736 89.8298 9.1377L 89.8298 9.66406L 84.8191 9.66406C 84.8373 10.3932 85.0492 10.9834 85.4548 11.4346C 85.865 11.8812 86.3845 12.1045 87.0134 12.1045C 87.46 12.1045 87.8383 12.0133 88.1482 11.8311C 88.4581 11.6488 88.7292 11.4072 88.9616 11.1064L 89.7341 11.708C 89.1143 12.6605 88.1846 13.1367 86.945 13.1367ZM 86.7878 6.50586C 86.2774 6.50586 85.849 6.69271 85.5027 7.06641C 85.1563 7.43555 84.9421 7.95508 84.8601 8.625L 88.5652 8.625L 88.5652 8.5293C 88.5287 7.88672 88.3555 7.38997 88.0456 7.03906C 87.7357 6.68359 87.3165 6.50586 86.7878 6.50586ZM 94.8747 6.73828C 94.6833 6.70638 94.476 6.69043 94.2527 6.69043C 93.4232 6.69043 92.8604 7.04362 92.5642 7.75L 92.5642 13L 91.2995 13L 91.2995 5.60352L 92.53 5.60352L 92.5505 6.45801C 92.9652 5.7972 93.5531 5.4668 94.3142 5.4668C 94.5603 5.4668 94.7471 5.4987 94.8747 5.5625L 94.8747 6.73828Z"/>
<path id="path13_fill" d="M 10.1911 9.38379C 10.1911 10.5094 9.93365 11.4163 9.41868 12.1045C 8.9037 12.7926 8.20644 13.1367 7.32688 13.1367C 6.42909 13.1367 5.72271 12.8519 5.20774 12.2822L 5.20774 15.8438L 3.94309 15.8438L 3.94309 5.60352L 5.09837 5.60352L 5.15989 6.42383C 5.67486 5.78581 6.39036 5.4668 7.30637 5.4668C 8.19505 5.4668 8.89687 5.80176 9.41184 6.47168C 9.93137 7.1416 10.1911 8.07357 10.1911 9.26758L 10.1911 9.38379ZM 8.92649 9.24023C 8.92649 8.40625 8.74876 7.74772 8.39329 7.26465C 8.03782 6.78158 7.55019 6.54004 6.9304 6.54004C 6.16477 6.54004 5.59055 6.87956 5.20774 7.55859L 5.20774 11.0928C 5.586 11.7673 6.16477 12.1045 6.94407 12.1045C 7.55019 12.1045 8.03098 11.8652 8.38645 11.3867C 8.74648 10.9036 8.92649 10.1882 8.92649 9.24023ZM 11.4695 9.2334C 11.4695 8.50879 11.6107 7.8571 11.8933 7.27832C 12.1804 6.69954 12.5769 6.25293 13.0827 5.93848C 13.5932 5.62402 14.1742 5.4668 14.8259 5.4668C 15.8331 5.4668 16.6465 5.81543 17.2663 6.5127C 17.8907 7.20996 18.2029 8.13737 18.2029 9.29492L 18.2029 9.38379C 18.2029 10.1038 18.0639 10.751 17.7859 11.3252C 17.5124 11.8949 17.1182 12.3392 16.6032 12.6582C 16.0928 12.9772 15.5049 13.1367 14.8396 13.1367C 13.837 13.1367 13.0235 12.7881 12.3991 12.0908C 11.7794 11.3936 11.4695 10.4707 11.4695 9.32227L 11.4695 9.2334ZM 12.7409 9.38379C 12.7409 10.2041 12.9301 10.8626 13.3083 11.3594C 13.6911 11.8561 14.2016 12.1045 14.8396 12.1045C 15.4822 12.1045 15.9926 11.8538 16.3708 11.3525C 16.7491 10.8467 16.9382 10.1403 16.9382 9.2334C 16.9382 8.4222 16.7445 7.76595 16.3572 7.26465C 15.9743 6.75879 15.4639 6.50586 14.8259 6.50586C 14.2016 6.50586 13.698 6.75423 13.3152 7.25098C 12.9324 7.74772 12.7409 8.45866 12.7409 9.38379ZM 26.0368 9.38379C 26.0368 10.5094 25.7794 11.4163 25.2644 12.1045C 24.7494 12.7926 24.0521 13.1367 23.1726 13.1367C 22.2748 13.1367 21.5684 12.8519 21.0534 12.2822L 21.0534 15.8438L 19.7888 15.8438L 19.7888 5.60352L 20.9441 5.60352L 21.0056 6.42383C 21.5206 5.78581 22.2361 5.4668 23.1521 5.4668C 24.0407 5.4668 24.7426 5.80176 25.2575 6.47168C 25.7771 7.1416 26.0368 8.07357 26.0368 9.26758L 26.0368 9.38379ZM 24.7722 9.24023C 24.7722 8.40625 24.5945 7.74772 24.239 7.26465C 23.8835 6.78158 23.3959 6.54004 22.7761 6.54004C 22.0105 6.54004 21.4363 6.87956 21.0534 7.55859L 21.0534 11.0928C 21.4317 11.7673 22.0105 12.1045 22.7898 12.1045C 23.3959 12.1045 23.8767 11.8652 24.2322 11.3867C 24.5922 10.9036 24.7722 10.1882 24.7722 9.24023ZM 32.2165 12.2686C 31.7243 12.8473 31.002 13.1367 30.0495 13.1367C 29.2611 13.1367 28.6596 12.9089 28.2449 12.4531C 27.8347 11.9928 27.6273 11.3138 27.6228 10.416L 27.6228 5.60352L 28.8874 5.60352L 28.8874 10.3818C 28.8874 11.5029 29.3432 12.0635 30.2546 12.0635C 31.2208 12.0635 31.8633 11.7035 32.1824 10.9834L 32.1824 5.60352L 33.447 5.60352L 33.447 13L 32.2439 13L 32.2165 12.2686ZM 36.7488 13L 35.4841 13L 35.4841 2.5L 36.7488 2.5L 36.7488 13ZM 43.3454 13C 43.2725 12.8542 43.2133 12.5944 43.1677 12.2207C 42.5798 12.8314 41.878 13.1367 41.0622 13.1367C 40.3331 13.1367 39.7338 12.9316 39.2644 12.5215C 38.7995 12.1068 38.5671 11.5827 38.5671 10.9492C 38.5671 10.179 38.8588 9.58203 39.4421 9.1582C 40.03 8.72982 40.8549 8.51562 41.9167 8.51562L 43.1472 8.51562L 43.1472 7.93457C 43.1472 7.49251 43.015 7.1416 42.7507 6.88184C 42.4864 6.61751 42.0967 6.48535 41.5818 6.48535C 41.1306 6.48535 40.7523 6.59928 40.447 6.82715C 40.1417 7.05501 39.989 7.33073 39.989 7.6543L 38.7175 7.6543C 38.7175 7.28516 38.8474 6.92969 39.1072 6.58789C 39.3715 6.24154 39.7269 5.9681 40.1736 5.76758C 40.6247 5.56706 41.1192 5.4668 41.657 5.4668C 42.5092 5.4668 43.1768 5.68099 43.6599 6.10938C 44.143 6.5332 44.3936 7.11882 44.4118 7.86621L 44.4118 11.2705C 44.4118 11.9495 44.4984 12.4896 44.6716 12.8906L 44.6716 13L 43.3454 13ZM 41.2468 12.0361C 41.6433 12.0361 42.0193 11.9336 42.3747 11.7285C 42.7302 11.5234 42.9877 11.2568 43.1472 10.9287L 43.1472 9.41113L 42.156 9.41113C 40.6065 9.41113 39.8318 9.86458 39.8318 10.7715C 39.8318 11.168 39.9639 11.4779 40.2282 11.7012C 40.4926 11.9245 40.8321 12.0361 41.2468 12.0361ZM 48.1101 3.8125L 48.1101 5.60352L 49.4909 5.60352L 49.4909 6.58105L 48.1101 6.58105L 48.1101 11.168C 48.1101 11.4642 48.1716 11.6875 48.2947 11.8379C 48.4177 11.9837 48.6273 12.0566 48.9236 12.0566C 49.0694 12.0566 49.2699 12.0293 49.5251 11.9746L 49.5251 13C 49.1924 13.0911 48.8689 13.1367 48.5544 13.1367C 47.9893 13.1367 47.5632 12.9658 47.2761 12.624C 46.989 12.2822 46.8454 11.7969 46.8454 11.168L 46.8454 6.58105L 45.4988 6.58105L 45.4988 5.60352L 46.8454 5.60352L 46.8454 3.8125L 48.1101 3.8125ZM 52.3484 13L 51.0837 13L 51.0837 5.60352L 52.3484 5.60352L 52.3484 13ZM 50.9812 3.6416C 50.9812 3.43652 51.0427 3.26335 51.1657 3.12207C 51.2934 2.98079 51.4802 2.91016 51.7263 2.91016C 51.9724 2.91016 52.1592 2.98079 52.2868 3.12207C 52.4144 3.26335 52.4782 3.43652 52.4782 3.6416C 52.4782 3.84668 52.4144 4.01758 52.2868 4.1543C 52.1592 4.29102 51.9724 4.35938 51.7263 4.35938C 51.4802 4.35938 51.2934 4.29102 51.1657 4.1543C 51.0427 4.01758 50.9812 3.84668 50.9812 3.6416ZM 54.0437 9.2334C 54.0437 8.50879 54.185 7.8571 54.4675 7.27832C 54.7546 6.69954 55.1511 6.25293 55.657 5.93848C 56.1674 5.62402 56.7484 5.4668 57.4001 5.4668C 58.4073 5.4668 59.2208 5.81543 59.8406 6.5127C 60.4649 7.20996 60.7771 8.13737 60.7771 9.29492L 60.7771 9.38379C 60.7771 10.1038 60.6381 10.751 60.3601 11.3252C 60.0866 11.8949 59.6924 12.3392 59.1775 12.6582C 58.6671 12.9772 58.0792 13.1367 57.4138 13.1367C 56.4112 13.1367 55.5977 12.7881 54.9734 12.0908C 54.3536 11.3936 54.0437 10.4707 54.0437 9.32227L 54.0437 9.2334ZM 55.3152 9.38379C 55.3152 10.2041 55.5043 10.8626 55.8825 11.3594C 56.2654 11.8561 56.7758 12.1045 57.4138 12.1045C 58.0564 12.1045 58.5668 11.8538 58.945 11.3525C 59.3233 10.8467 59.5124 10.1403 59.5124 9.2334C 59.5124 8.4222 59.3187 7.76595 58.9314 7.26465C 58.5486 6.75879 58.0381 6.50586 57.4001 6.50586C 56.7758 6.50586 56.2722 6.75423 55.8894 7.25098C 55.5066 7.74772 55.3152 8.45866 55.3152 9.38379ZM 63.5593 5.60352L 63.6003 6.5332C 64.1654 5.82227 64.9037 5.4668 65.8152 5.4668C 67.3783 5.4668 68.1667 6.34863 68.1804 8.1123L 68.1804 13L 66.9157 13L 66.9157 8.10547C 66.9112 7.57227 66.7881 7.17806 66.5466 6.92285C 66.3096 6.66764 65.9382 6.54004 65.4324 6.54004C 65.0222 6.54004 64.6622 6.64941 64.3523 6.86816C 64.0424 7.08691 63.8008 7.37402 63.6277 7.72949L 63.6277 13L 62.363 13L 62.363 5.60352L 63.5593 5.60352ZM 75.4197 14.0322L 69.1579 14.0322L 69.1579 13L 75.4197 13L 75.4197 14.0322ZM 76.1032 9.24023C 76.1032 8.08724 76.3699 7.17122 76.9031 6.49219C 77.4363 5.80859 78.1426 5.4668 79.0222 5.4668C 79.9245 5.4668 80.6286 5.78581 81.1345 6.42383L 81.196 5.60352L 82.3513 5.60352L 82.3513 12.8223C 82.3513 13.7793 82.0665 14.5335 81.4968 15.085C 80.9317 15.6364 80.1706 15.9121 79.2136 15.9121C 78.6804 15.9121 78.1586 15.7982 77.6482 15.5703C 77.1378 15.3424 76.7481 15.0303 76.4792 14.6338L 77.1355 13.875C 77.6778 14.5449 78.3409 14.8799 79.1247 14.8799C 79.74 14.8799 80.2185 14.7067 80.5603 14.3604C 80.9066 14.014 81.0798 13.5264 81.0798 12.8975L 81.0798 12.2617C 80.574 12.8451 79.8835 13.1367 79.0085 13.1367C 78.1426 13.1367 77.4408 12.7881 76.9031 12.0908C 76.3699 11.3936 76.1032 10.4434 76.1032 9.24023ZM 77.3747 9.38379C 77.3747 10.2178 77.5456 10.874 77.8874 11.3525C 78.2292 11.8265 78.7077 12.0635 79.323 12.0635C 80.1205 12.0635 80.7061 11.7012 81.0798 10.9766L 81.0798 7.59961C 80.6924 6.89323 80.1114 6.54004 79.3366 6.54004C 78.7214 6.54004 78.2406 6.7793 77.8943 7.25781C 77.5479 7.73633 77.3747 8.44499 77.3747 9.38379ZM 87.8406 6.73828C 87.6491 6.70638 87.4418 6.69043 87.2185 6.69043C 86.3891 6.69043 85.8262 7.04362 85.53 7.75L 85.53 13L 84.2654 13L 84.2654 5.60352L 85.4958 5.60352L 85.5163 6.45801C 85.931 5.7972 86.5189 5.4668 87.28 5.4668C 87.5261 5.4668 87.7129 5.4987 87.8406 5.5625L 87.8406 6.73828ZM 88.5378 9.2334C 88.5378 8.50879 88.6791 7.8571 88.9616 7.27832C 89.2488 6.69954 89.6452 6.25293 90.1511 5.93848C 90.6615 5.62402 91.2426 5.4668 91.8943 5.4668C 92.9014 5.4668 93.7149 5.81543 94.3347 6.5127C 94.959 7.20996 95.2712 8.13737 95.2712 9.29492L 95.2712 9.38379C 95.2712 10.1038 95.1322 10.751 94.8542 11.3252C 94.5808 11.8949 94.1866 12.3392 93.6716 12.6582C 93.1612 12.9772 92.5733 13.1367 91.9079 13.1367C 90.9053 13.1367 90.0919 12.7881 89.4675 12.0908C 88.8477 11.3936 88.5378 10.4707 88.5378 9.32227L 88.5378 9.2334ZM 89.8093 9.38379C 89.8093 10.2041 89.9984 10.8626 90.3767 11.3594C 90.7595 11.8561 91.2699 12.1045 91.9079 12.1045C 92.5505 12.1045 93.0609 11.8538 93.4392 11.3525C 93.8174 10.8467 94.0066 10.1403 94.0066 9.2334C 94.0066 8.4222 93.8129 7.76595 93.4255 7.26465C 93.0427 6.75879 92.5323 6.50586 91.8943 6.50586C 91.2699 6.50586 90.7663 6.75423 90.3835 7.25098C 90.0007 7.74772 89.8093 8.45866 89.8093 9.38379ZM 103.406 11.2568L 104.828 5.60352L 106.093 5.60352L 103.939 13L 102.914 13L 101.116 7.39453L 99.3659 13L 98.3406 13L 96.1941 5.60352L 97.4519 5.60352L 98.9079 11.1406L 100.631 5.60352L 101.649 5.60352L 103.406 11.2568ZM 109.1 3.8125L 109.1 5.60352L 110.481 5.60352L 110.481 6.58105L 109.1 6.58105L 109.1 11.168C 109.1 11.4642 109.162 11.6875 109.285 11.8379C 109.408 11.9837 109.618 12.0566 109.914 12.0566C 110.06 12.0566 110.26 12.0293 110.515 11.9746L 110.515 13C 110.183 13.0911 109.859 13.1367 109.545 13.1367C 108.98 13.1367 108.553 12.9658 108.266 12.624C 107.979 12.2822 107.836 11.7969 107.836 11.168L 107.836 6.58105L 106.489 6.58105L 106.489 5.60352L 107.836 5.60352L 107.836 3.8125L 109.1 3.8125ZM 113.229 6.49902C 113.79 5.81087 114.519 5.4668 115.417 5.4668C 116.98 5.4668 117.768 6.34863 117.782 8.1123L 117.782 13L 116.517 13L 116.517 8.10547C 116.513 7.57227 116.39 7.17806 116.148 6.92285C 115.911 6.66764 115.54 6.54004 115.034 6.54004C 114.624 6.54004 114.264 6.64941 113.954 6.86816C 113.644 7.08691 113.402 7.37402 113.229 7.72949L 113.229 13L 111.965 13L 111.965 2.5L 113.229 2.5L 113.229 6.49902Z"/>
<path id="path14_fill" d="M 38.5466 9.38379C 38.5466 10.514 38.2868 11.4232 37.7673 12.1113C 37.2478 12.7949 36.5505 13.1367 35.6755 13.1367C 34.7413 13.1367 34.0189 12.8063 33.5085 12.1455L 33.447 13L 32.2849 13L 32.2849 2.5L 33.5495 2.5L 33.5495 6.41699C 34.06 5.78353 34.7641 5.4668 35.6618 5.4668C 36.5596 5.4668 37.2637 5.80631 37.7741 6.48535C 38.2891 7.16439 38.5466 8.09408 38.5466 9.27441L 38.5466 9.38379ZM 37.282 9.24023C 37.282 8.37891 37.1156 7.71354 36.7829 7.24414C 36.4503 6.77474 35.9717 6.54004 35.3474 6.54004C 34.5134 6.54004 33.9141 6.92741 33.5495 7.70215L 33.5495 10.9014C 33.9369 11.6761 34.5407 12.0635 35.3611 12.0635C 35.9672 12.0635 36.4389 11.8288 36.7761 11.3594C 37.1133 10.89 37.282 10.1836 37.282 9.24023ZM 41.5202 13L 40.2556 13L 40.2556 5.60352L 41.5202 5.60352L 41.5202 13ZM 40.1531 3.6416C 40.1531 3.43652 40.2146 3.26335 40.3376 3.12207C 40.4652 2.98079 40.6521 2.91016 40.8982 2.91016C 41.1443 2.91016 41.3311 2.98079 41.4587 3.12207C 41.5863 3.26335 41.6501 3.43652 41.6501 3.6416C 41.6501 3.84668 41.5863 4.01758 41.4587 4.1543C 41.3311 4.29102 41.1443 4.35938 40.8982 4.35938C 40.6521 4.35938 40.4652 4.29102 40.3376 4.1543C 40.2146 4.01758 40.1531 3.84668 40.1531 3.6416ZM 47.1257 6.73828C 46.9343 6.70638 46.7269 6.69043 46.5036 6.69043C 45.6742 6.69043 45.1114 7.04362 44.8152 7.75L 44.8152 13L 43.5505 13L 43.5505 5.60352L 44.781 5.60352L 44.8015 6.45801C 45.2162 5.7972 45.8041 5.4668 46.5652 5.4668C 46.8113 5.4668 46.9981 5.4987 47.1257 5.5625L 47.1257 6.73828ZM 50.3523 3.8125L 50.3523 5.60352L 51.7331 5.60352L 51.7331 6.58105L 50.3523 6.58105L 50.3523 11.168C 50.3523 11.4642 50.4138 11.6875 50.5368 11.8379C 50.6599 11.9837 50.8695 12.0566 51.1657 12.0566C 51.3116 12.0566 51.5121 12.0293 51.7673 11.9746L 51.7673 13C 51.4346 13.0911 51.1111 13.1367 50.7966 13.1367C 50.2315 13.1367 49.8054 12.9658 49.5183 12.624C 49.2312 12.2822 49.0876 11.7969 49.0876 11.168L 49.0876 6.58105L 47.7409 6.58105L 47.7409 5.60352L 49.0876 5.60352L 49.0876 3.8125L 50.3523 3.8125ZM 54.4812 6.49902C 55.0417 5.81087 55.7709 5.4668 56.6687 5.4668C 58.2318 5.4668 59.0202 6.34863 59.0339 8.1123L 59.0339 13L 57.7693 13L 57.7693 8.10547C 57.7647 7.57227 57.6417 7.17806 57.4001 6.92285C 57.1631 6.66764 56.7917 6.54004 56.2859 6.54004C 55.8757 6.54004 55.5157 6.64941 55.2058 6.86816C 54.8959 7.08691 54.6544 7.37402 54.4812 7.72949L 54.4812 13L 53.2165 13L 53.2165 2.5L 54.4812 2.5L 54.4812 6.49902ZM 66.2595 14.0322L 59.9978 14.0322L 59.9978 13L 66.2595 13L 66.2595 14.0322ZM 70.8191 6.73828C 70.6277 6.70638 70.4203 6.69043 70.197 6.69043C 69.3676 6.69043 68.8047 7.04362 68.5085 7.75L 68.5085 13L 67.2439 13L 67.2439 5.60352L 68.4743 5.60352L 68.4949 6.45801C 68.9096 5.7972 69.4975 5.4668 70.2585 5.4668C 70.5046 5.4668 70.6915 5.4987 70.8191 5.5625L 70.8191 6.73828ZM 76.281 13C 76.2081 12.8542 76.1488 12.5944 76.1032 12.2207C 75.5154 12.8314 74.8135 13.1367 73.9978 13.1367C 73.2686 13.1367 72.6693 12.9316 72.1999 12.5215C 71.7351 12.1068 71.5027 11.5827 71.5027 10.9492C 71.5027 10.179 71.7943 9.58203 72.3777 9.1582C 72.9656 8.72982 73.7904 8.51562 74.8523 8.51562L 76.0827 8.51562L 76.0827 7.93457C 76.0827 7.49251 75.9506 7.1416 75.6863 6.88184C 75.4219 6.61751 75.0323 6.48535 74.5173 6.48535C 74.0661 6.48535 73.6879 6.59928 73.3825 6.82715C 73.0772 7.05501 72.9245 7.33073 72.9245 7.6543L 71.6531 7.6543C 71.6531 7.28516 71.7829 6.92969 72.0427 6.58789C 72.307 6.24154 72.6625 5.9681 73.1091 5.76758C 73.5603 5.56706 74.0547 5.4668 74.5925 5.4668C 75.4447 5.4668 76.1124 5.68099 76.5954 6.10938C 77.0785 6.5332 77.3292 7.11882 77.3474 7.86621L 77.3474 11.2705C 77.3474 11.9495 77.434 12.4896 77.6072 12.8906L 77.6072 13L 76.281 13ZM 74.1824 12.0361C 74.5788 12.0361 74.9548 11.9336 75.3103 11.7285C 75.6657 11.5234 75.9232 11.2568 76.0827 10.9287L 76.0827 9.41113L 75.0915 9.41113C 73.5421 9.41113 72.7673 9.86458 72.7673 10.7715C 72.7673 11.168 72.8995 11.4779 73.1638 11.7012C 73.4281 11.9245 73.7676 12.0361 74.1824 12.0361ZM 81.0456 3.8125L 81.0456 5.60352L 82.4265 5.60352L 82.4265 6.58105L 81.0456 6.58105L 81.0456 11.168C 81.0456 11.4642 81.1072 11.6875 81.2302 11.8379C 81.3532 11.9837 81.5629 12.0566 81.8591 12.0566C 82.0049 12.0566 82.2055 12.0293 82.4607 11.9746L 82.4607 13C 82.128 13.0911 81.8044 13.1367 81.49 13.1367C 80.9249 13.1367 80.4988 12.9658 80.2116 12.624C 79.9245 12.2822 79.781 11.7969 79.781 11.168L 79.781 6.58105L 78.4343 6.58105L 78.4343 5.60352L 79.781 5.60352L 79.781 3.8125L 81.0456 3.8125ZM 86.9792 13.1367C 85.9766 13.1367 85.1609 12.8086 84.532 12.1523C 83.9031 11.4915 83.5886 10.6097 83.5886 9.50684L 83.5886 9.27441C 83.5886 8.54069 83.7276 7.88672 84.0056 7.3125C 84.2881 6.73372 84.6801 6.28255 85.1814 5.95898C 85.6872 5.63086 86.2341 5.4668 86.822 5.4668C 87.7836 5.4668 88.531 5.78353 89.0642 6.41699C 89.5974 7.05046 89.864 7.95736 89.864 9.1377L 89.864 9.66406L 84.8532 9.66406C 84.8715 10.3932 85.0834 10.9834 85.489 11.4346C 85.8991 11.8812 86.4187 12.1045 87.0476 12.1045C 87.4942 12.1045 87.8725 12.0133 88.1824 11.8311C 88.4922 11.6488 88.7634 11.4072 88.9958 11.1064L 89.7683 11.708C 89.1485 12.6605 88.2188 13.1367 86.9792 13.1367ZM 86.822 6.50586C 86.3116 6.50586 85.8832 6.69271 85.5368 7.06641C 85.1905 7.43555 84.9763 7.95508 84.8943 8.625L 88.5993 8.625L 88.5993 8.5293C 88.5629 7.88672 88.3897 7.38997 88.0798 7.03906C 87.7699 6.68359 87.3506 6.50586 86.822 6.50586Z"/>
<path id="path15_fill" d="M 28.6824 9.24023C 28.6824 8.10547 28.9512 7.19401 29.489 6.50586C 30.0268 5.81315 30.7309 5.4668 31.6013 5.4668C 32.4672 5.4668 33.1531 5.76302 33.6589 6.35547L 33.6589 2.5L 34.9236 2.5L 34.9236 13L 33.7615 13L 33.6999 12.207C 33.1941 12.8268 32.49 13.1367 31.5876 13.1367C 30.7309 13.1367 30.0313 12.7858 29.489 12.084C 28.9512 11.3822 28.6824 10.4661 28.6824 9.33594L 28.6824 9.24023ZM 29.947 9.38379C 29.947 10.2223 30.1202 10.8786 30.4665 11.3525C 30.8129 11.8265 31.2914 12.0635 31.9021 12.0635C 32.7042 12.0635 33.2898 11.7035 33.6589 10.9834L 33.6589 7.58594C 33.2807 6.88867 32.6996 6.54004 31.9157 6.54004C 31.296 6.54004 30.8129 6.7793 30.4665 7.25781C 30.1202 7.73633 29.947 8.44499 29.947 9.38379ZM 39.9616 13.1367C 38.959 13.1367 38.1433 12.8086 37.5144 12.1523C 36.8855 11.4915 36.571 10.6097 36.571 9.50684L 36.571 9.27441C 36.571 8.54069 36.71 7.88672 36.988 7.3125C 37.2706 6.73372 37.6625 6.28255 38.1638 5.95898C 38.6697 5.63086 39.2165 5.4668 39.8044 5.4668C 40.766 5.4668 41.5134 5.78353 42.0466 6.41699C 42.5798 7.05046 42.8464 7.95736 42.8464 9.1377L 42.8464 9.66406L 37.8357 9.66406C 37.8539 10.3932 38.0658 10.9834 38.4714 11.4346C 38.8816 11.8812 39.4011 12.1045 40.03 12.1045C 40.4766 12.1045 40.8549 12.0133 41.1648 11.8311C 41.4747 11.6488 41.7458 11.4072 41.9782 11.1064L 42.7507 11.708C 42.1309 12.6605 41.2012 13.1367 39.9616 13.1367ZM 39.8044 6.50586C 39.294 6.50586 38.8656 6.69271 38.5193 7.06641C 38.1729 7.43555 37.9587 7.95508 37.8767 8.625L 41.5818 8.625L 41.5818 8.5293C 41.5453 7.88672 41.3721 7.38997 41.0622 7.03906C 40.7523 6.68359 40.3331 6.50586 39.8044 6.50586ZM 48.8825 13C 48.8096 12.8542 48.7504 12.5944 48.7048 12.2207C 48.1169 12.8314 47.4151 13.1367 46.5993 13.1367C 45.8702 13.1367 45.2709 12.9316 44.8015 12.5215C 44.3366 12.1068 44.1042 11.5827 44.1042 10.9492C 44.1042 10.179 44.3959 9.58203 44.9792 9.1582C 45.5671 8.72982 46.392 8.51562 47.4538 8.51562L 48.6843 8.51562L 48.6843 7.93457C 48.6843 7.49251 48.5521 7.1416 48.2878 6.88184C 48.0235 6.61751 47.6338 6.48535 47.1189 6.48535C 46.6677 6.48535 46.2894 6.59928 45.9841 6.82715C 45.6788 7.05501 45.5261 7.33073 45.5261 7.6543L 44.2546 7.6543C 44.2546 7.28516 44.3845 6.92969 44.6443 6.58789C 44.9086 6.24154 45.2641 5.9681 45.7107 5.76758C 46.1618 5.56706 46.6563 5.4668 47.1941 5.4668C 48.0463 5.4668 48.7139 5.68099 49.197 6.10938C 49.6801 6.5332 49.9307 7.11882 49.949 7.86621L 49.949 11.2705C 49.949 11.9495 50.0355 12.4896 50.2087 12.8906L 50.2087 13L 48.8825 13ZM 46.7839 12.0361C 47.1804 12.0361 47.5564 11.9336 47.9118 11.7285C 48.2673 11.5234 48.5248 11.2568 48.6843 10.9287L 48.6843 9.41113L 47.6931 9.41113C 46.1436 9.41113 45.3689 9.86458 45.3689 10.7715C 45.3689 11.168 45.501 11.4779 45.7654 11.7012C 46.0297 11.9245 46.3692 12.0361 46.7839 12.0361ZM 53.6472 3.8125L 53.6472 5.60352L 55.0281 5.60352L 55.0281 6.58105L 53.6472 6.58105L 53.6472 11.168C 53.6472 11.4642 53.7087 11.6875 53.8318 11.8379C 53.9548 11.9837 54.1644 12.0566 54.4607 12.0566C 54.6065 12.0566 54.807 12.0293 55.0622 11.9746L 55.0622 13C 54.7296 13.0911 54.406 13.1367 54.0915 13.1367C 53.5264 13.1367 53.1003 12.9658 52.8132 12.624C 52.5261 12.2822 52.3825 11.7969 52.3825 11.168L 52.3825 6.58105L 51.0359 6.58105L 51.0359 5.60352L 52.3825 5.60352L 52.3825 3.8125L 53.6472 3.8125ZM 57.7761 6.49902C 58.3366 5.81087 59.0658 5.4668 59.9636 5.4668C 61.5268 5.4668 62.3152 6.34863 62.3288 8.1123L 62.3288 13L 61.0642 13L 61.0642 8.10547C 61.0596 7.57227 60.9366 7.17806 60.695 6.92285C 60.4581 6.66764 60.0866 6.54004 59.5808 6.54004C 59.1706 6.54004 58.8106 6.64941 58.5007 6.86816C 58.1908 7.08691 57.9493 7.37402 57.7761 7.72949L 57.7761 13L 56.5115 13L 56.5115 2.5L 57.7761 2.5L 57.7761 6.49902ZM 69.5544 14.0322L 63.2927 14.0322L 63.2927 13L 69.5544 13L 69.5544 14.0322ZM 74.114 6.73828C 73.9226 6.70638 73.7152 6.69043 73.4919 6.69043C 72.6625 6.69043 72.0997 7.04362 71.8034 7.75L 71.8034 13L 70.5388 13L 70.5388 5.60352L 71.7693 5.60352L 71.7898 6.45801C 72.2045 5.7972 72.7924 5.4668 73.5534 5.4668C 73.7995 5.4668 73.9864 5.4987 74.114 5.5625L 74.114 6.73828ZM 79.5759 13C 79.503 12.8542 79.4437 12.5944 79.3982 12.2207C 78.8103 12.8314 78.1085 13.1367 77.2927 13.1367C 76.5635 13.1367 75.9643 12.9316 75.4949 12.5215C 75.03 12.1068 74.7976 11.5827 74.7976 10.9492C 74.7976 10.179 75.0893 9.58203 75.6726 9.1582C 76.2605 8.72982 77.0853 8.51562 78.1472 8.51562L 79.3777 8.51562L 79.3777 7.93457C 79.3777 7.49251 79.2455 7.1416 78.9812 6.88184C 78.7169 6.61751 78.3272 6.48535 77.8122 6.48535C 77.3611 6.48535 76.9828 6.59928 76.6775 6.82715C 76.3721 7.05501 76.2195 7.33073 76.2195 7.6543L 74.948 7.6543C 74.948 7.28516 75.0779 6.92969 75.3376 6.58789C 75.6019 6.24154 75.9574 5.9681 76.404 5.76758C 76.8552 5.56706 77.3497 5.4668 77.8874 5.4668C 78.7396 5.4668 79.4073 5.68099 79.8904 6.10938C 80.3734 6.5332 80.6241 7.11882 80.6423 7.86621L 80.6423 11.2705C 80.6423 11.9495 80.7289 12.4896 80.9021 12.8906L 80.9021 13L 79.5759 13ZM 77.4773 12.0361C 77.8738 12.0361 78.2497 11.9336 78.6052 11.7285C 78.9607 11.5234 79.2182 11.2568 79.3777 10.9287L 79.3777 9.41113L 78.3865 9.41113C 76.837 9.41113 76.0622 9.86458 76.0622 10.7715C 76.0622 11.168 76.1944 11.4779 76.4587 11.7012C 76.723 11.9245 77.0626 12.0361 77.4773 12.0361ZM 84.3406 3.8125L 84.3406 5.60352L 85.7214 5.60352L 85.7214 6.58105L 84.3406 6.58105L 84.3406 11.168C 84.3406 11.4642 84.4021 11.6875 84.5251 11.8379C 84.6482 11.9837 84.8578 12.0566 85.154 12.0566C 85.2999 12.0566 85.5004 12.0293 85.7556 11.9746L 85.7556 13C 85.4229 13.0911 85.0993 13.1367 84.7849 13.1367C 84.2198 13.1367 83.7937 12.9658 83.5066 12.624C 83.2195 12.2822 83.0759 11.7969 83.0759 11.168L 83.0759 6.58105L 81.7292 6.58105L 81.7292 5.60352L 83.0759 5.60352L 83.0759 3.8125L 84.3406 3.8125ZM 90.2741 13.1367C 89.2715 13.1367 88.4558 12.8086 87.8269 12.1523C 87.198 11.4915 86.8835 10.6097 86.8835 9.50684L 86.8835 9.27441C 86.8835 8.54069 87.0225 7.88672 87.3005 7.3125C 87.5831 6.73372 87.975 6.28255 88.4763 5.95898C 88.9822 5.63086 89.529 5.4668 90.1169 5.4668C 91.0785 5.4668 91.8259 5.78353 92.3591 6.41699C 92.8923 7.05046 93.1589 7.95736 93.1589 9.1377L 93.1589 9.66406L 88.1482 9.66406C 88.1664 10.3932 88.3783 10.9834 88.7839 11.4346C 89.1941 11.8812 89.7136 12.1045 90.3425 12.1045C 90.7891 12.1045 91.1674 12.0133 91.4773 11.8311C 91.7872 11.6488 92.0583 11.4072 92.2907 11.1064L 93.0632 11.708C 92.4434 12.6605 91.5137 13.1367 90.2741 13.1367ZM 90.1169 6.50586C 89.6065 6.50586 89.1781 6.69271 88.8318 7.06641C 88.4854 7.43555 88.2712 7.95508 88.1892 8.625L 91.8943 8.625L 91.8943 8.5293C 91.8578 7.88672 91.6846 7.38997 91.3747 7.03906C 91.0648 6.68359 90.6456 6.50586 90.1169 6.50586Z"/>
<path id="path16_fill" d="M 18.1345 5.60352L 18.1687 6.42383C 18.711 5.78581 19.4424 5.4668 20.363 5.4668C 21.3975 5.4668 22.1016 5.86328 22.4753 6.65625C 22.7214 6.30078 23.0404 6.01367 23.4324 5.79492C 23.8288 5.57617 24.296 5.4668 24.8337 5.4668C 26.4561 5.4668 27.281 6.32585 27.3083 8.04395L 27.3083 13L 26.0437 13L 26.0437 8.11914C 26.0437 7.59049 25.9229 7.19629 25.6814 6.93652C 25.4398 6.6722 25.0342 6.54004 24.4646 6.54004C 23.9952 6.54004 23.6055 6.68132 23.2956 6.96387C 22.9857 7.24186 22.8057 7.61784 22.7556 8.0918L 22.7556 13L 21.4841 13L 21.4841 8.15332C 21.4841 7.0778 20.9577 6.54004 19.905 6.54004C 19.0756 6.54004 18.5082 6.89323 18.2029 7.59961L 18.2029 13L 16.9382 13L 16.9382 5.60352L 18.1345 5.60352ZM 30.5964 13L 29.3318 13L 29.3318 5.60352L 30.5964 5.60352L 30.5964 13ZM 29.2292 3.6416C 29.2292 3.43652 29.2907 3.26335 29.4138 3.12207C 29.5414 2.98079 29.7282 2.91016 29.9743 2.91016C 30.2204 2.91016 30.4073 2.98079 30.5349 3.12207C 30.6625 3.26335 30.7263 3.43652 30.7263 3.6416C 30.7263 3.84668 30.6625 4.01758 30.5349 4.1543C 30.4073 4.29102 30.2204 4.35938 29.9743 4.35938C 29.7282 4.35938 29.5414 4.29102 29.4138 4.1543C 29.2907 4.01758 29.2292 3.84668 29.2292 3.6416ZM 32.3259 9.24023C 32.3259 8.08724 32.5925 7.17122 33.1257 6.49219C 33.6589 5.80859 34.3653 5.4668 35.2449 5.4668C 36.1472 5.4668 36.8513 5.78581 37.3572 6.42383L 37.4187 5.60352L 38.574 5.60352L 38.574 12.8223C 38.574 13.7793 38.2891 14.5335 37.7195 15.085C 37.1544 15.6364 36.3933 15.9121 35.4363 15.9121C 34.9031 15.9121 34.3812 15.7982 33.8708 15.5703C 33.3604 15.3424 32.9708 15.0303 32.7019 14.6338L 33.3581 13.875C 33.9004 14.5449 34.5635 14.8799 35.3474 14.8799C 35.9626 14.8799 36.4411 14.7067 36.7829 14.3604C 37.1293 14.014 37.3025 13.5264 37.3025 12.8975L 37.3025 12.2617C 36.7966 12.8451 36.1062 13.1367 35.2312 13.1367C 34.3653 13.1367 33.6635 12.7881 33.1257 12.0908C 32.5925 11.3936 32.3259 10.4434 32.3259 9.24023ZM 33.5974 9.38379C 33.5974 10.2178 33.7683 10.874 34.1101 11.3525C 34.4519 11.8265 34.9304 12.0635 35.5456 12.0635C 36.3432 12.0635 36.9288 11.7012 37.3025 10.9766L 37.3025 7.59961C 36.9151 6.89323 36.334 6.54004 35.5593 6.54004C 34.9441 6.54004 34.4633 6.7793 34.1169 7.25781C 33.7706 7.73633 33.5974 8.44499 33.5974 9.38379ZM 44.0632 6.73828C 43.8718 6.70638 43.6644 6.69043 43.4411 6.69043C 42.6117 6.69043 42.0489 7.04362 41.7527 7.75L 41.7527 13L 40.488 13L 40.488 5.60352L 41.7185 5.60352L 41.739 6.45801C 42.1537 5.7972 42.7416 5.4668 43.5027 5.4668C 43.7488 5.4668 43.9356 5.4987 44.0632 5.5625L 44.0632 6.73828ZM 49.5251 13C 49.4522 12.8542 49.393 12.5944 49.3474 12.2207C 48.7595 12.8314 48.0577 13.1367 47.2419 13.1367C 46.5128 13.1367 45.9135 12.9316 45.4441 12.5215C 44.9792 12.1068 44.7468 11.5827 44.7468 10.9492C 44.7468 10.179 45.0385 9.58203 45.6218 9.1582C 46.2097 8.72982 47.0346 8.51562 48.0964 8.51562L 49.3269 8.51562L 49.3269 7.93457C 49.3269 7.49251 49.1947 7.1416 48.9304 6.88184C 48.6661 6.61751 48.2764 6.48535 47.7615 6.48535C 47.3103 6.48535 46.932 6.59928 46.6267 6.82715C 46.3213 7.05501 46.1687 7.33073 46.1687 7.6543L 44.8972 7.6543C 44.8972 7.28516 45.0271 6.92969 45.2868 6.58789C 45.5512 6.24154 45.9066 5.9681 46.3532 5.76758C 46.8044 5.56706 47.2989 5.4668 47.8366 5.4668C 48.6889 5.4668 49.3565 5.68099 49.8396 6.10938C 50.3226 6.5332 50.5733 7.11882 50.5915 7.86621L 50.5915 11.2705C 50.5915 11.9495 50.6781 12.4896 50.8513 12.8906L 50.8513 13L 49.5251 13ZM 47.4265 12.0361C 47.823 12.0361 48.199 11.9336 48.5544 11.7285C 48.9099 11.5234 49.1674 11.2568 49.3269 10.9287L 49.3269 9.41113L 48.3357 9.41113C 46.7862 9.41113 46.0115 9.86458 46.0115 10.7715C 46.0115 11.168 46.1436 11.4779 46.4079 11.7012C 46.6723 11.9245 47.0118 12.0361 47.4265 12.0361ZM 54.2898 3.8125L 54.2898 5.60352L 55.6706 5.60352L 55.6706 6.58105L 54.2898 6.58105L 54.2898 11.168C 54.2898 11.4642 54.3513 11.6875 54.4743 11.8379C 54.5974 11.9837 54.807 12.0566 55.1032 12.0566C 55.2491 12.0566 55.4496 12.0293 55.7048 11.9746L 55.7048 13C 55.3721 13.0911 55.0486 13.1367 54.7341 13.1367C 54.169 13.1367 53.7429 12.9658 53.4558 12.624C 53.1687 12.2822 53.0251 11.7969 53.0251 11.168L 53.0251 6.58105L 51.6784 6.58105L 51.6784 5.60352L 53.0251 5.60352L 53.0251 3.8125L 54.2898 3.8125ZM 58.5281 13L 57.2634 13L 57.2634 5.60352L 58.5281 5.60352L 58.5281 13ZM 57.1609 3.6416C 57.1609 3.43652 57.2224 3.26335 57.3454 3.12207C 57.473 2.98079 57.6599 2.91016 57.906 2.91016C 58.1521 2.91016 58.3389 2.98079 58.4665 3.12207C 58.5941 3.26335 58.6579 3.43652 58.6579 3.6416C 58.6579 3.84668 58.5941 4.01758 58.4665 4.1543C 58.3389 4.29102 58.1521 4.35938 57.906 4.35938C 57.6599 4.35938 57.473 4.29102 57.3454 4.1543C 57.2224 4.01758 57.1609 3.84668 57.1609 3.6416ZM 60.2234 9.2334C 60.2234 8.50879 60.3646 7.8571 60.6472 7.27832C 60.9343 6.69954 61.3308 6.25293 61.8366 5.93848C 62.3471 5.62402 62.9281 5.4668 63.5798 5.4668C 64.587 5.4668 65.4004 5.81543 66.0202 6.5127C 66.6446 7.20996 66.9568 8.13737 66.9568 9.29492L 66.9568 9.38379C 66.9568 10.1038 66.8178 10.751 66.5398 11.3252C 66.2663 11.8949 65.8721 12.3392 65.3572 12.6582C 64.8467 12.9772 64.2588 13.1367 63.5935 13.1367C 62.5909 13.1367 61.7774 12.7881 61.1531 12.0908C 60.5333 11.3936 60.2234 10.4707 60.2234 9.32227L 60.2234 9.2334ZM 61.4949 9.38379C 61.4949 10.2041 61.684 10.8626 62.0622 11.3594C 62.445 11.8561 62.9555 12.1045 63.5935 12.1045C 64.2361 12.1045 64.7465 11.8538 65.1247 11.3525C 65.503 10.8467 65.6921 10.1403 65.6921 9.2334C 65.6921 8.4222 65.4984 7.76595 65.1111 7.26465C 64.7282 6.75879 64.2178 6.50586 63.5798 6.50586C 62.9555 6.50586 62.4519 6.75423 62.0691 7.25098C 61.6863 7.74772 61.4949 8.45866 61.4949 9.38379ZM 69.739 5.60352L 69.78 6.5332C 70.3451 5.82227 71.0834 5.4668 71.9949 5.4668C 73.558 5.4668 74.3464 6.34863 74.3601 8.1123L 74.3601 13L 73.0954 13L 73.0954 8.10547C 73.0909 7.57227 72.9678 7.17806 72.7263 6.92285C 72.4893 6.66764 72.1179 6.54004 71.612 6.54004C 71.2019 6.54004 70.8419 6.64941 70.532 6.86816C 70.2221 7.08691 69.9805 7.37402 69.8074 7.72949L 69.8074 13L 68.5427 13L 68.5427 5.60352L 69.739 5.60352ZM 81.5993 14.0322L 75.3376 14.0322L 75.3376 13L 81.5993 13L 81.5993 14.0322ZM 86.1589 6.73828C 85.9675 6.70638 85.7601 6.69043 85.5368 6.69043C 84.7074 6.69043 84.1446 7.04362 83.8484 7.75L 83.8484 13L 82.5837 13L 82.5837 5.60352L 83.8142 5.60352L 83.8347 6.45801C 84.2494 5.7972 84.8373 5.4668 85.5984 5.4668C 85.8445 5.4668 86.0313 5.4987 86.1589 5.5625L 86.1589 6.73828ZM 91.6208 13C 91.5479 12.8542 91.4887 12.5944 91.4431 12.2207C 90.8552 12.8314 90.1534 13.1367 89.3376 13.1367C 88.6085 13.1367 88.0092 12.9316 87.5398 12.5215C 87.0749 12.1068 86.8425 11.5827 86.8425 10.9492C 86.8425 10.179 87.1342 9.58203 87.7175 9.1582C 88.3054 8.72982 89.1303 8.51562 90.1921 8.51562L 91.4226 8.51562L 91.4226 7.93457C 91.4226 7.49251 91.2904 7.1416 91.0261 6.88184C 90.7618 6.61751 90.3721 6.48535 89.8572 6.48535C 89.406 6.48535 89.0277 6.59928 88.7224 6.82715C 88.4171 7.05501 88.2644 7.33073 88.2644 7.6543L 86.9929 7.6543C 86.9929 7.28516 87.1228 6.92969 87.3825 6.58789C 87.6469 6.24154 88.0023 5.9681 88.449 5.76758C 88.9001 5.56706 89.3946 5.4668 89.9324 5.4668C 90.7846 5.4668 91.4522 5.68099 91.9353 6.10938C 92.4184 6.5332 92.669 7.11882 92.6872 7.86621L 92.6872 11.2705C 92.6872 11.9495 92.7738 12.4896 92.947 12.8906L 92.947 13L 91.6208 13ZM 89.5222 12.0361C 89.9187 12.0361 90.2947 11.9336 90.6501 11.7285C 91.0056 11.5234 91.2631 11.2568 91.4226 10.9287L 91.4226 9.41113L 90.4314 9.41113C 88.8819 9.41113 88.1072 9.86458 88.1072 10.7715C 88.1072 11.168 88.2393 11.4779 88.5036 11.7012C 88.768 11.9245 89.1075 12.0361 89.5222 12.0361ZM 96.3855 3.8125L 96.3855 5.60352L 97.7663 5.60352L 97.7663 6.58105L 96.3855 6.58105L 96.3855 11.168C 96.3855 11.4642 96.447 11.6875 96.57 11.8379C 96.6931 11.9837 96.9027 12.0566 97.199 12.0566C 97.3448 12.0566 97.5453 12.0293 97.8005 11.9746L 97.8005 13C 97.4678 13.0911 97.1443 13.1367 96.8298 13.1367C 96.2647 13.1367 95.8386 12.9658 95.5515 12.624C 95.2644 12.2822 95.1208 11.7969 95.1208 11.168L 95.1208 6.58105L 93.7741 6.58105L 93.7741 5.60352L 95.1208 5.60352L 95.1208 3.8125L 96.3855 3.8125ZM 102.319 13.1367C 101.316 13.1367 100.501 12.8086 99.8718 12.1523C 99.2429 11.4915 98.9284 10.6097 98.9284 9.50684L 98.9284 9.27441C 98.9284 8.54069 99.0674 7.88672 99.3454 7.3125C 99.628 6.73372 100.02 6.28255 100.521 5.95898C 101.027 5.63086 101.574 5.4668 102.162 5.4668C 103.123 5.4668 103.871 5.78353 104.404 6.41699C 104.937 7.05046 105.204 7.95736 105.204 9.1377L 105.204 9.66406L 100.193 9.66406C 100.211 10.3932 100.423 10.9834 100.829 11.4346C 101.239 11.8812 101.759 12.1045 102.387 12.1045C 102.834 12.1045 103.212 12.0133 103.522 11.8311C 103.832 11.6488 104.103 11.4072 104.336 11.1064L 105.108 11.708C 104.488 12.6605 103.559 13.1367 102.319 13.1367ZM 102.162 6.50586C 101.651 6.50586 101.223 6.69271 100.877 7.06641C 100.53 7.43555 100.316 7.95508 100.234 8.625L 103.939 8.625L 103.939 8.5293C 103.903 7.88672 103.73 7.38997 103.42 7.03906C 103.11 6.68359 102.69 6.50586 102.162 6.50586Z"/>
<path id="path17_stroke" d="M 0 0L 183.883 0L 183.883 -2L 0 -2L 0 0Z"/>
<path id="path18_stroke" d="M 0 0L 12 0L 12 -2L 0 -2L 0 0Z"/>
</defs>
</svg>
